<svg width="139" height="40" viewBox="0 0 139 40" fill="none" xmlns="http://www.w3.org/2000/svg">
<g clip-path="url(#clip0_6978_71955)">
<path d="M25.7581 19.0367C23.022 19.0367 20.8031 16.8178 20.8031 14.0817H22.0823C22.0823 16.111 23.7287 17.7574 25.7581 17.7574V19.0367Z" fill="#056B69"/>
<path d="M24.7908 16.0123C25.3228 16.0123 25.7541 15.581 25.7541 15.0489C25.7541 14.5169 25.3228 14.0856 24.7908 14.0856C24.2587 14.0856 23.8274 14.5169 23.8274 15.0489C23.8274 15.581 24.2587 16.0123 24.7908 16.0123Z" fill="#056B69"/>
<path d="M20.8031 26.1632C20.8031 23.427 23.022 21.2082 25.7581 21.2082V22.4874C23.7287 22.4874 22.0823 24.1338 22.0823 26.1632H20.8031Z" fill="#056B69"/>
<path d="M24.7908 26.1632C25.3228 26.1632 25.7541 25.7319 25.7541 25.1999C25.7541 24.6678 25.3228 24.2365 24.7908 24.2365C24.2587 24.2365 23.8274 24.6678 23.8274 25.1999C23.8274 25.7319 24.2587 26.1632 24.7908 26.1632Z" fill="#056B69"/>
<path d="M13.6766 21.2082C16.4127 21.2082 18.6316 23.427 18.6316 26.1632H17.3523C17.3523 24.1338 15.7059 22.4874 13.6766 22.4874V21.2082Z" fill="#056B69"/>
<path d="M14.6399 26.1632C15.172 26.1632 15.6033 25.7319 15.6033 25.1999C15.6033 24.6678 15.172 24.2365 14.6399 24.2365C14.1079 24.2365 13.6766 24.6678 13.6766 25.1999C13.6766 25.7319 14.1079 26.1632 14.6399 26.1632Z" fill="#056B69"/>
<path d="M18.6316 14.0817C18.6316 16.8178 16.4127 19.0367 13.6766 19.0367V17.7575C15.7059 17.7575 17.3523 16.1111 17.3523 14.0817H18.6316Z" fill="#056B69"/>
<path d="M14.6399 16.0124C15.172 16.0124 15.6033 15.5811 15.6033 15.049C15.6033 14.517 15.172 14.0856 14.6399 14.0856C14.1079 14.0856 13.6766 14.517 13.6766 15.049C13.6766 15.5811 14.1079 16.0124 14.6399 16.0124Z" fill="#056B69"/>
<path d="M26.4845 10.394C22.7456 14.133 16.689 14.133 12.9501 10.394L14.6991 8.64499C17.4708 11.4166 21.9638 11.4166 24.7355 8.64499L26.4845 10.394Z" fill="#056B69"/>
<path d="M19.7173 8.12384C20.7465 8.12384 21.5809 7.2895 21.5809 6.26028C21.5809 5.23107 20.7465 4.39673 19.7173 4.39673C18.6881 4.39673 17.8538 5.23107 17.8538 6.26028C17.8538 7.2895 18.6881 8.12384 19.7173 8.12384Z" fill="#056B69"/>
<path d="M29.4457 26.8897C25.7067 23.1507 25.7067 17.0941 29.4457 13.3552L31.1948 15.1043C28.4231 17.8759 28.4231 22.369 31.1948 25.1406L29.4457 26.8897Z" fill="#056B69"/>
<path d="M33.5795 21.986C34.6087 21.986 35.443 21.1517 35.443 20.1225C35.443 19.0932 34.6087 18.2589 33.5795 18.2589C32.5503 18.2589 31.7159 19.0932 31.7159 20.1225C31.7159 21.1517 32.5503 21.986 33.5795 21.986Z" fill="#056B69"/>
<path d="M12.9501 29.8547C16.6891 26.1158 22.7456 26.1158 26.4846 29.8547L24.7355 31.6038C21.9639 28.8322 17.4708 28.8322 14.6992 31.6038L12.9501 29.8547Z" fill="#056B69"/>
<path d="M19.7173 35.8521C20.7465 35.8521 21.5809 35.0177 21.5809 33.9885C21.5809 32.9593 20.7465 32.125 19.7173 32.125C18.6881 32.125 17.8538 32.9593 17.8538 33.9885C17.8538 35.0177 18.6881 35.8521 19.7173 35.8521Z" fill="#056B69"/>
<path d="M9.98499 13.3552C13.7239 17.0942 13.7239 23.1507 9.98499 26.8897L8.23594 25.1406C11.0076 22.369 11.0076 17.8759 8.23594 15.1043L9.98499 13.3552Z" fill="#056B69"/>
<path d="M5.85122 21.986C6.88043 21.986 7.71477 21.1517 7.71477 20.1225C7.71477 19.0932 6.88043 18.2589 5.85122 18.2589C4.82201 18.2589 3.98766 19.0932 3.98766 20.1225C3.98766 21.1517 4.82201 21.986 5.85122 21.986Z" fill="#056B69"/>
<path d="M16.7206 -0.91753C16.7206 8.31338 9.23873 15.7952 0.00782287 15.7952V11.4759C6.85796 11.4759 12.4052 5.92471 12.4052 -0.921478H16.7206V-0.91753Z" fill="#056B69"/>
<path d="M3.26115 5.5891C5.05791 5.5891 6.51447 4.13254 6.51447 2.33578C6.51447 0.539018 5.05791 -0.917544 3.26115 -0.917544C1.46439 -0.917544 0.00782473 0.539018 0.00782473 2.33578C0.00782473 4.13254 1.46439 5.5891 3.26115 5.5891Z" fill="#056B69"/>
<path d="M39.4268 15.7952C30.1959 15.7952 22.714 8.31339 22.714 -0.917524H27.0333C27.0333 5.93262 32.5845 11.4798 39.4307 11.4798V15.7952H39.4268Z" fill="#056B69"/>
<path d="M36.1734 5.58913C37.9702 5.58913 39.4268 4.13257 39.4268 2.33581C39.4268 0.53905 37.9702 -0.917512 36.1734 -0.917512C34.3767 -0.917512 32.9201 0.53905 32.9201 2.33581C32.9201 4.13257 34.3767 5.58913 36.1734 5.58913Z" fill="#056B69"/>
<path d="M22.7101 41.1625C22.7101 31.9316 30.1919 24.4497 39.4228 24.4497V28.769C32.5727 28.769 27.0254 34.3202 27.0254 41.1664H22.7101V41.1625Z" fill="#056B69"/>
<path d="M36.1734 41.1664C37.9702 41.1664 39.4268 39.7099 39.4268 37.9131C39.4268 36.1163 37.9702 34.6598 36.1734 34.6598C34.3767 34.6598 32.9201 36.1163 32.9201 37.9131C32.9201 39.7099 34.3767 41.1664 36.1734 41.1664Z" fill="#056B69"/>
<path d="M0.00785446 24.4497C9.23876 24.4497 16.7206 31.9316 16.7206 41.1625H12.4013C12.4013 34.3123 6.8501 28.7651 0.00390625 28.7651V24.4497H0.00785446Z" fill="#056B69"/>
<path d="M3.26118 41.1664C5.05795 41.1664 6.51451 39.7099 6.51451 37.9131C6.51451 36.1163 5.05795 34.6598 3.26118 34.6598C1.46442 34.6598 0.00786142 36.1163 0.00786142 37.9131C0.00786142 39.7099 1.46442 41.1664 3.26118 41.1664Z" fill="#056B69"/>
</g>
<path d="M56.4839 15.5467C57.2655 15.5467 57.8366 15.8172 58.2574 16.3282C58.6783 16.8393 58.8887 17.5908 58.8887 18.5827V27.8111H63.0971V18.6729C63.0971 17.7711 63.3376 17.0196 63.8786 16.4184C64.4197 15.8473 65.081 15.5467 65.8926 15.5467C66.6742 15.5467 67.2453 15.8172 67.6662 16.3282C68.087 16.8393 68.2974 17.5908 68.2974 18.5827V27.8111H72.5058V17.3803C72.5058 15.6669 71.9948 14.2842 71.0329 13.2621C70.071 12.2401 68.7784 11.699 67.1552 11.699C66.1932 11.699 65.3215 11.8794 64.54 12.2401C63.7283 12.6008 62.9768 13.1419 62.2554 13.8633C61.8045 13.172 61.2033 12.6309 60.4819 12.2702C59.7304 11.9095 58.8887 11.699 57.9869 11.699C57.0851 11.699 56.2735 11.8794 55.5521 12.2101C54.8006 12.5407 54.1693 13.0217 53.6884 13.6229V11.9996H49.48V27.8111H53.6884V18.6729C53.6884 17.7711 53.9288 17.0196 54.4699 16.4184C55.011 15.8473 55.6723 15.5467 56.4839 15.5467Z" fill="#424242"/>
<path d="M84.8876 26.3382C85.2483 27.0295 85.8195 27.4804 86.6612 27.7209C87.5028 27.9614 88.5549 27.9915 89.8776 27.8111V24.6548C89.3966 24.7149 89.0659 24.6849 88.8856 24.5346C88.6752 24.3843 88.585 24.0837 88.585 23.6628V17.2C88.585 15.4265 88.0139 14.0738 86.9317 13.1118C85.8195 12.18 84.2263 11.699 82.1822 11.699C80.4388 11.699 78.9658 12.1499 77.7334 13.0217C76.5009 13.9235 75.6893 15.0958 75.2985 16.5387L79.2965 17.2902C79.4769 16.5687 79.7775 16.0577 80.2284 15.697C80.6492 15.3663 81.2504 15.186 82.0319 15.186C82.8436 15.186 83.4448 15.3663 83.8656 15.7271C84.2564 16.0878 84.4668 16.6589 84.4668 17.3803V17.6208L80.529 18.3723C78.5751 18.733 77.1322 19.3042 76.2003 20.1458C75.2685 20.9875 74.8176 22.0697 74.8176 23.4224C74.8176 24.8051 75.2985 25.9474 76.3206 26.7891C77.3126 27.6608 78.6051 28.0816 80.1983 28.0816C81.1903 28.0816 82.0921 27.9313 82.9037 27.6307C83.6852 27.3301 84.3466 26.9093 84.8876 26.3382ZM81.04 24.8953C80.3787 24.8953 79.8676 24.745 79.5069 24.4444C79.1462 24.1438 78.9658 23.723 78.9658 23.1819C78.9658 22.6709 79.1462 22.25 79.5069 21.9194C79.8676 21.6188 80.4989 21.3783 81.3706 21.1979L84.4668 20.5667V22.1899C84.4668 23.0015 84.1361 23.6628 83.4748 24.1438C82.8135 24.6548 82.0019 24.8953 81.04 24.8953Z" fill="#424242"/>
<path d="M97.4825 27.9915C97.9634 27.9915 98.4444 27.9915 98.8953 27.9313C99.3462 27.9013 99.767 27.8412 100.188 27.751V24.264C99.8271 24.3242 99.5566 24.3542 99.3762 24.3542C99.1959 24.3542 98.9855 24.3542 98.745 24.3542C97.9634 24.3542 97.4223 24.264 97.1518 24.0236C96.8813 23.7831 96.761 23.3923 96.761 22.8212V15.5166H99.9774V11.9996H96.761V7.49066H92.6128V11.9996H90.5086V15.5166H92.6128V23.6929C92.6128 25.1959 92.9735 26.3081 93.755 26.9694C94.5065 27.6608 95.739 27.9915 97.4825 27.9915Z" fill="#424242"/>
<path d="M107.992 27.9915C108.473 27.9915 108.954 27.9915 109.404 27.9313C109.855 27.9013 110.276 27.8412 110.697 27.751V24.264C110.336 24.3242 110.066 24.3542 109.885 24.3542C109.705 24.3542 109.495 24.3542 109.254 24.3542C108.473 24.3542 107.932 24.264 107.661 24.0236C107.39 23.7831 107.27 23.3923 107.27 22.8212V15.5166H110.487V11.9996H107.27V7.49066H103.122V11.9996H101.018V15.5166H103.122V23.6929C103.122 25.1959 103.483 26.3081 104.264 26.9694C105.016 27.6608 106.248 27.9915 107.992 27.9915Z" fill="#424242"/>
<path d="M120.007 28.1418C121.63 28.1418 123.043 27.751 124.275 26.9394C125.508 26.1578 126.409 25.0456 126.981 23.6328L123.433 22.3703C123.193 23.1218 122.772 23.6929 122.171 24.0837C121.57 24.5045 120.878 24.6849 120.037 24.6849C118.985 24.6849 118.113 24.3542 117.422 23.6628C116.73 23.0015 116.309 22.0396 116.189 20.8372H127.071V19.6048C127.071 17.2601 126.409 15.3363 125.117 13.8934C123.794 12.4505 122.051 11.699 119.856 11.699C118.744 11.699 117.722 11.9095 116.76 12.3303C115.798 12.7511 114.957 13.3523 114.265 14.1339C113.574 14.8854 113.063 15.7571 112.702 16.7491C112.341 17.7411 112.161 18.7932 112.161 19.9054C112.161 21.1078 112.341 22.1899 112.702 23.1819C113.063 24.2039 113.574 25.0757 114.265 25.7971C114.957 26.5786 115.798 27.1498 116.79 27.5406C117.752 27.9614 118.834 28.1418 120.007 28.1418ZM119.826 15.0657C120.728 15.0657 121.48 15.3363 122.021 15.8774C122.562 16.4184 122.862 17.1098 122.892 17.9815H116.339C116.58 17.0497 117.001 16.3282 117.602 15.8172C118.203 15.3363 118.955 15.0657 119.826 15.0657Z" fill="#424242"/>
<path d="M137.978 11.9095C137.016 11.9095 136.174 12.1199 135.423 12.5407C134.671 12.9616 134.13 13.5026 133.77 14.2241V11.9996H129.561V27.8111H133.77V19.7851C133.77 18.6429 134.1 17.711 134.822 17.0196C135.543 16.3583 136.475 15.9976 137.647 15.9976C137.858 15.9976 138.068 16.0277 138.279 16.0277C138.459 16.0277 138.699 16.0577 139 16.0878V11.9696C138.76 11.9696 138.549 11.9395 138.399 11.9395C138.249 11.9395 138.098 11.9095 137.978 11.9095Z" fill="#424242"/>
<path d="M117.456 33.077C117.456 33.147 117.4 33.2037 117.33 33.2037H115.962C115.892 33.2037 115.835 33.2605 115.835 33.3305V37.4103C115.835 37.4803 115.778 37.537 115.708 37.537H114.902C114.832 37.537 114.775 37.4803 114.775 37.4103V33.3305C114.775 33.2605 114.719 33.2037 114.649 33.2037H113.274C113.204 33.2037 113.147 33.147 113.147 33.077V32.4245C113.147 32.3545 113.204 32.2978 113.274 32.2978H117.33C117.4 32.2978 117.456 32.3545 117.456 32.4245V33.077Z" fill="#424242"/>
<path d="M117.703 34.9377L117.702 34.9383C117.569 35.1556 117.524 35.433 117.567 35.7713C117.609 36.1097 117.723 36.3732 117.906 36.5483C118.089 36.7234 118.317 36.7936 118.591 36.7592C118.783 36.7349 118.939 36.6581 119.055 36.5255C119.173 36.3904 119.234 36.3052 119.264 36.0579C119.268 36.0271 119.296 36.005 119.326 36.0099L120.121 36.1372C120.145 36.141 120.163 36.1598 120.165 36.1835C120.197 36.5757 119.965 36.9193 119.705 37.1528C119.435 37.3942 119.097 37.5409 118.689 37.592C118.416 37.6263 118.156 37.6113 117.909 37.5468C117.662 37.4824 117.443 37.3692 117.252 37.2069C117.062 37.0543 116.909 36.8659 116.793 36.6417C116.677 36.4175 116.601 36.1691 116.567 35.8966C116.533 35.6241 116.544 35.3648 116.6 35.1191C116.657 34.8734 116.758 34.653 116.904 34.4579C117.049 34.2585 117.233 34.0965 117.456 33.9732C117.68 33.8496 117.928 33.7706 118.201 33.7362C118.604 33.6856 118.87 33.6937 119.184 33.8596C119.521 34.0378 119.721 34.2305 119.962 34.7105C119.975 34.7378 119.963 34.771 119.935 34.7831L119.201 35.0978C119.174 35.1097 119.141 35.0961 119.129 35.0682C119.053 34.8904 118.954 34.7617 118.821 34.6718C118.674 34.5731 118.505 34.5362 118.313 34.5601C118.04 34.5944 117.836 34.72 117.703 34.9371L117.703 34.9377Z" fill="#424242"/>
<path d="M123.825 33.8189C123.855 33.8189 123.879 33.8428 123.879 33.8724V37.4902C123.879 37.5198 123.855 37.5438 123.825 37.5438H122.931C122.902 37.5438 122.878 37.5198 122.878 37.4902V37.3068C122.878 37.257 122.814 37.2327 122.778 37.2671C122.673 37.367 122.557 37.4463 122.428 37.5047C122.256 37.5825 122.068 37.6215 121.863 37.6215C121.477 37.6215 121.167 37.4999 120.933 37.257C120.7 37.0137 120.583 36.6894 120.583 36.2832V34.04C120.583 34.0104 120.607 33.9865 120.636 33.9865H121.53C121.56 33.9865 121.584 34.0104 121.584 34.04V36.0637C121.584 36.2858 121.635 36.4543 121.737 36.57C121.84 36.6856 121.989 36.7433 122.184 36.7433C122.379 36.7433 122.544 36.6749 122.678 36.538C122.811 36.4011 122.878 36.224 122.878 36.0068V33.8724C122.878 33.8428 122.902 33.8189 122.931 33.8189H123.825Z" fill="#424242"/>
<path d="M125.688 32.2978C125.718 32.2978 125.742 32.3218 125.742 32.3514V37.4834C125.742 37.513 125.718 37.537 125.688 37.537H124.781C124.752 37.537 124.728 37.513 124.728 37.4834V32.3514C124.728 32.3218 124.752 32.2978 124.781 32.2978H125.688Z" fill="#424242"/>
<path d="M127.388 37.4225L127.387 37.4222C127.151 37.3302 126.947 37.1954 126.777 37.0174C126.611 36.8443 126.483 36.6395 126.394 36.4036C126.304 36.1677 126.257 35.91 126.253 35.6305C126.249 35.3653 126.288 35.1147 126.371 34.8791C126.454 34.6435 126.576 34.437 126.737 34.2598C126.902 34.0729 127.099 33.9284 127.328 33.8264C127.557 33.7241 127.804 33.6715 128.068 33.6685C128.596 33.6623 129.018 33.8288 129.335 34.1686C129.652 34.5085 129.815 34.9578 129.823 35.5168L129.826 35.7546C129.827 35.7842 129.803 35.8085 129.773 35.8089L127.281 35.8388C127.249 35.8392 127.224 35.8677 127.23 35.8994C127.273 36.1547 127.373 36.3561 127.529 36.5039C127.697 36.663 127.906 36.741 128.156 36.7381C128.357 36.7357 128.528 36.6864 128.668 36.5898C128.794 36.503 128.886 36.3841 128.944 36.2331C128.954 36.205 128.985 36.1892 129.013 36.1988L129.762 36.4517C129.791 36.4615 129.806 36.4935 129.794 36.5216C129.663 36.8303 129.459 37.0761 129.182 37.2591C128.89 37.4523 128.549 37.5511 128.161 37.5557C127.882 37.559 127.625 37.5147 127.388 37.4228L127.388 37.4225ZM127.545 34.6485C127.415 34.7563 127.322 34.9061 127.265 35.0971C127.255 35.1306 127.281 35.1633 127.316 35.1629L128.762 35.1455C128.792 35.1451 128.816 35.12 128.813 35.09C128.796 34.9072 128.726 34.759 128.604 34.6462C128.47 34.5222 128.293 34.4616 128.072 34.4643C127.866 34.4667 127.691 34.528 127.546 34.6481L127.545 34.6485Z" fill="#424242"/>
<path d="M130.85 37.3264L130.85 37.3256C130.551 37.2054 130.321 37.0457 130.16 36.8463C130.142 36.8245 130.145 36.7928 130.167 36.7744L130.71 36.3016C130.734 36.2813 130.769 36.2851 130.789 36.3087C130.91 36.4507 131.049 36.5318 131.239 36.6264C131.447 36.7305 131.68 36.7432 131.895 36.7432C132.091 36.7432 132.245 36.7089 132.358 36.6402C132.47 36.5715 132.526 36.4779 132.526 36.3596C132.526 36.2745 132.5 36.2069 132.448 36.1569C132.395 36.1073 132.302 36.0658 132.167 36.0326C132.134 36.0233 132.093 36.0136 132.045 36.0042C131.997 35.9949 131.864 35.9688 131.643 35.9262C131.399 35.8788 131.214 35.8326 131.087 35.7878C130.961 35.7426 130.852 35.6918 130.761 35.6351C130.627 35.55 130.526 35.4422 130.459 35.3119C130.392 35.1816 130.358 35.0264 130.358 34.8465C130.358 34.4863 130.502 34.1941 130.789 33.969C131.076 33.744 131.447 33.6316 131.902 33.6316C132.222 33.6316 132.524 33.691 132.806 33.8093C133.071 33.9204 133.279 34.065 133.431 34.2431C133.448 34.2632 133.446 34.2927 133.429 34.312L132.928 34.8568C132.906 34.8813 132.867 34.8795 132.845 34.8542C132.729 34.7172 132.592 34.6103 132.433 34.5341C132.256 34.449 132.069 34.4061 131.873 34.4061C131.715 34.4061 131.589 34.4371 131.493 34.4986C131.397 34.5602 131.349 34.6431 131.349 34.7472C131.349 34.8181 131.371 34.8752 131.414 34.9178C131.457 34.9603 131.529 34.9958 131.629 35.0245C131.667 35.0387 131.712 35.0518 131.762 35.0637C131.812 35.0757 131.914 35.0958 132.067 35.1242C132.359 35.1858 132.569 35.238 132.698 35.2806C132.828 35.3231 132.94 35.3705 133.036 35.4228C133.194 35.5127 133.312 35.6265 133.391 35.7639C133.47 35.9012 133.509 36.0647 133.509 36.2543C133.509 36.6287 133.355 36.9328 133.046 37.1672C132.737 37.4016 132.346 37.5188 131.873 37.5188C131.509 37.5188 131.168 37.4551 130.85 37.3272L130.85 37.3264Z" fill="#424242"/>
<path d="M123.748 32.2978H120.138C120.055 32.2978 119.987 32.3655 119.987 32.4491V32.9717C119.987 33.0553 120.055 33.123 120.138 33.123H123.748C123.831 33.123 123.899 33.0553 123.899 32.9717V32.4491C123.899 32.3655 123.831 32.2978 123.748 32.2978Z" fill="#FFC644"/>
<path d="M107.016 36.8939C107.144 36.7226 107.244 36.5156 107.315 36.2873C107.387 36.0589 107.422 35.8091 107.422 35.545C107.422 35.2881 107.387 35.0383 107.315 34.8099C107.244 34.5816 107.144 34.3746 107.016 34.2033C106.866 34.0035 106.687 33.8536 106.48 33.7537C106.266 33.6538 106.038 33.5967 105.788 33.5967C105.567 33.5967 105.367 33.6395 105.189 33.718C105.003 33.7965 104.853 33.9107 104.739 34.0534V32.2978H103.74V37.422H104.739V37.0366C104.853 37.1865 105.003 37.3007 105.189 37.3792C105.367 37.4648 105.567 37.5005 105.788 37.5005C106.038 37.5005 106.266 37.4506 106.48 37.3435C106.687 37.2436 106.866 37.0937 107.016 36.8939ZM105.552 34.4531C105.824 34.4531 106.031 34.553 106.188 34.7457C106.338 34.9455 106.416 35.2096 106.416 35.545C106.416 35.8876 106.338 36.1588 106.188 36.3515C106.031 36.5513 105.824 36.6441 105.552 36.6441C105.296 36.6441 105.096 36.5585 104.946 36.38C104.789 36.2016 104.717 35.959 104.717 35.6521V35.4451C104.717 35.1454 104.789 34.9027 104.946 34.7243C105.096 34.5459 105.296 34.4531 105.552 34.4531Z" fill="#424242"/>
<path d="M111.24 33.6681H110.234L109.406 36.1374L108.556 33.6681H107.522L108.87 37.2721L108.749 37.5719C108.699 37.7004 108.635 37.786 108.564 37.836C108.485 37.893 108.378 37.9145 108.235 37.9145C108.207 37.9145 108.171 37.9145 108.128 37.9145C108.078 37.9145 108.021 37.9073 107.95 37.9002V38.7066C108.035 38.7209 108.1 38.7281 108.15 38.7281C108.2 38.7281 108.264 38.7281 108.342 38.7281C108.699 38.7281 108.985 38.6495 109.206 38.4854C109.42 38.3213 109.606 38.0358 109.755 37.6361L111.24 33.6681Z" fill="#424242"/>
<defs>
<clipPath id="clip0_6978_71955">
<rect y="0.258972" width="39.4821" height="39.4821" rx="19.741" fill="white"/>
</clipPath>
</defs>
</svg>
