<svg width="125" height="41" viewBox="0 0 125 41" fill="none" xmlns="http://www.w3.org/2000/svg">
<g clip-path="url(#clip0_1603_45012)">
<path d="M119.818 0.916016H4.51016C2.52193 0.916016 0.910156 2.52779 0.910156 4.51602V36.516C0.910156 38.5042 2.52193 40.116 4.51016 40.116H119.818C121.806 40.116 123.418 38.5042 123.418 36.516V4.51602C123.418 2.52779 121.806 0.916016 119.818 0.916016Z" fill="#0E0E0E" stroke="white" stroke-opacity="0.5" stroke-width="2"/>
<path d="M25.3368 20.9938C25.348 20.121 25.5799 19.2652 26.0107 18.5061C26.4416 17.7469 27.0574 17.1091 27.801 16.652C27.3286 15.9773 26.7055 15.4221 25.981 15.0305C25.2565 14.6388 24.4507 14.4215 23.6275 14.3957C21.8715 14.2114 20.1692 15.4464 19.2744 15.4464C18.3622 15.4464 16.9845 14.414 15.501 14.4445C14.5414 14.4755 13.6061 14.7546 12.7864 15.2545C11.9668 15.7544 11.2905 16.4581 10.8236 17.297C8.80128 20.7985 10.3098 25.9444 12.247 28.7747C13.2163 30.1606 14.3491 31.7087 15.8313 31.6538C17.2818 31.5937 17.8235 30.7289 19.5743 30.7289C21.3088 30.7289 21.8171 31.6538 23.3294 31.6189C24.8858 31.5936 25.8664 30.2268 26.8016 28.8278C27.498 27.8403 28.0339 26.7489 28.3894 25.594C27.4852 25.2115 26.7136 24.5714 26.1707 23.7533C25.6279 22.9353 25.3378 21.9755 25.3368 20.9938Z" fill="white"/>
<path d="M22.4804 12.5329C23.329 11.5142 23.747 10.2048 23.6458 8.88281C22.3493 9.01897 21.1517 9.63861 20.2917 10.6183C19.8712 11.0968 19.5491 11.6536 19.3439 12.2567C19.1386 12.8599 19.0543 13.4975 19.0957 14.1333C19.7442 14.1399 20.3857 13.9994 20.972 13.7222C21.5583 13.445 22.074 13.0383 22.4804 12.5329Z" fill="white"/>
<path d="M43.6712 28.1436H38.7217L37.533 31.6534H35.4365L40.1248 18.668H42.3028L46.9912 31.6534H44.8588L43.6712 28.1436ZM39.2343 26.524H43.1576L41.2236 20.8278H41.1696L39.2343 26.524Z" fill="white"/>
<path d="M57.1162 26.921C57.1162 29.863 55.5414 31.7532 53.165 31.7532C52.563 31.7847 51.9646 31.6461 51.4378 31.3531C50.911 31.0602 50.4774 30.6248 50.1862 30.0969H50.1414V34.7862H48.1982V22.1868H50.079V23.7614H50.115C50.419 23.236 50.8602 22.8029 51.391 22.5082C51.9218 22.2134 52.5226 22.0681 53.1294 22.0877C55.5322 22.0877 57.1162 23.9871 57.1162 26.921ZM55.1186 26.921C55.1186 25.0042 54.1282 23.7441 52.6166 23.7441C51.1318 23.7441 50.1334 25.0308 50.1334 26.921C50.1334 28.8286 51.1318 30.1061 52.6166 30.1061C54.1282 30.1061 55.1186 28.8551 55.1186 26.921Z" fill="white"/>
<path d="M67.5362 26.921C67.5362 29.863 65.9618 31.7532 63.5854 31.7532C62.9834 31.7847 62.3846 31.646 61.8578 31.3531C61.331 31.0602 60.8974 30.6248 60.6066 30.0968H60.5614V34.7862H58.6182V22.1867H60.4994V23.7614H60.535C60.8394 23.236 61.2802 22.8029 61.811 22.5082C62.3418 22.2134 62.9426 22.0681 63.5494 22.0877C65.9526 22.0877 67.5362 23.9871 67.5362 26.921ZM65.539 26.921C65.539 25.0042 64.5482 23.744 63.037 23.744C61.5522 23.744 60.5534 25.0308 60.5534 26.921C60.5534 28.8286 61.5522 30.106 63.037 30.106C64.5482 30.106 65.539 28.8551 65.539 26.921Z" fill="white"/>
<path d="M74.4237 28.037C74.5677 29.3248 75.8185 30.1702 77.5281 30.1702C79.1661 30.1702 80.3445 29.3247 80.3445 28.1636C80.3445 27.1557 79.6337 26.5522 77.9509 26.1386L76.2677 25.7332C73.8833 25.1572 72.7765 24.0421 72.7765 22.2325C72.7765 19.992 74.7289 18.4531 77.5013 18.4531C80.2453 18.4531 82.1265 19.992 82.1897 22.2325H80.2281C80.1105 20.9366 79.0393 20.1544 77.4737 20.1544C75.9085 20.1544 74.8369 20.9458 74.8369 22.0978C74.8369 23.0158 75.5213 23.556 77.1949 23.9696L78.6257 24.3208C81.2901 24.9509 82.3969 26.0211 82.3969 27.9205C82.3969 30.3499 80.4617 31.8715 77.3841 31.8715C74.5041 31.8715 72.5597 30.3857 72.4341 28.0369L74.4237 28.037Z" fill="white"/>
<path d="M86.5905 19.9453V22.1858H88.3909V23.7247H86.5905V28.944C86.5905 29.7548 86.9509 30.1327 87.7425 30.1327C87.9561 30.129 88.1697 30.114 88.3817 30.0877V31.6175C88.0261 31.684 87.6641 31.7141 87.3025 31.7073C85.3857 31.7073 84.6381 30.9874 84.6381 29.1513V23.7247H83.2617V22.1858H84.6381V19.9453H86.5905Z" fill="white"/>
<path d="M89.4341 26.921C89.4341 23.9422 91.1885 22.0703 93.9241 22.0703C96.6693 22.0703 98.4153 23.9421 98.4153 26.921C98.4153 29.9079 96.6785 31.7716 93.9241 31.7716C91.1709 31.7716 89.4341 29.9079 89.4341 26.921ZM96.4353 26.921C96.4353 24.8776 95.4989 23.6715 93.9241 23.6715C92.3493 23.6715 91.4141 24.8868 91.4141 26.921C91.4141 28.9725 92.3493 30.1694 93.9241 30.1694C95.4989 30.1694 96.4353 28.9725 96.4353 26.921Z" fill="white"/>
<path d="M100.018 22.1867H101.871V23.7981H101.916C102.041 23.2948 102.336 22.85 102.751 22.5385C103.166 22.2271 103.675 22.0678 104.193 22.0876C104.417 22.0868 104.64 22.1111 104.859 22.1601V23.9778C104.576 23.8914 104.281 23.8518 103.986 23.8604C103.704 23.8489 103.422 23.8987 103.161 24.0063C102.9 24.1139 102.665 24.2767 102.472 24.4837C102.28 24.6906 102.134 24.9367 102.046 25.2051C101.958 25.4735 101.929 25.7579 101.961 26.0386V31.6541H100.018V22.1867Z" fill="white"/>
<path d="M113.819 28.8735C113.558 30.5921 111.884 31.7716 109.742 31.7716C106.988 31.7716 105.279 29.9263 105.279 26.9659C105.279 23.9963 106.997 22.0703 109.66 22.0703C112.28 22.0703 113.927 23.8696 113.927 26.7402V27.406H107.24V27.5234C107.21 27.8719 107.253 28.2229 107.368 28.5532C107.484 28.8834 107.668 29.1854 107.908 29.439C108.15 29.6927 108.442 29.8922 108.766 30.0242C109.089 30.1563 109.438 30.218 109.787 30.2051C110.246 30.2481 110.707 30.1418 111.101 29.9018C111.495 29.6619 111.801 29.3012 111.974 28.8734L113.819 28.8735ZM107.25 26.0478H111.983C112 25.7346 111.953 25.421 111.843 25.127C111.734 24.8329 111.565 24.5646 111.347 24.339C111.129 24.1134 110.866 23.9353 110.576 23.8158C110.286 23.6964 109.974 23.6382 109.66 23.645C109.344 23.6431 109.03 23.7039 108.738 23.8239C108.445 23.9439 108.178 24.1206 107.954 24.344C107.73 24.5674 107.552 24.833 107.432 25.1254C107.31 25.4179 107.249 25.7314 107.25 26.0478Z" fill="white"/>
<path d="M38.9906 8.8938C39.398 8.86456 39.8068 8.92612 40.1876 9.07404C40.5683 9.22192 40.9115 9.45248 41.1923 9.74904C41.4731 10.0456 41.6847 10.4009 41.8119 10.7891C41.9387 11.1773 41.9779 11.5889 41.9267 11.9941C41.9267 13.9875 40.8491 15.1333 38.9906 15.1333H36.7368V8.8938H38.9906ZM37.7059 14.2509H38.8823C39.1735 14.2683 39.4648 14.2206 39.7352 14.1112C40.0055 14.0018 40.2481 13.8335 40.4452 13.6185C40.6423 13.4036 40.7891 13.1474 40.8747 12.8686C40.9603 12.5898 40.9827 12.2954 40.9399 12.0068C40.9795 11.7194 40.9547 11.4269 40.8679 11.1502C40.7811 10.8734 40.6339 10.6193 40.4373 10.406C40.2406 10.1928 39.9993 10.0257 39.7304 9.91668C39.4616 9.80768 39.172 9.75948 38.8823 9.77556H37.7059V14.2509Z" fill="white"/>
<path d="M43.0212 12.7771C42.9916 12.4677 43.0272 12.1555 43.1252 11.8605C43.2232 11.5656 43.382 11.2944 43.5912 11.0643C43.8004 10.8343 44.0552 10.6505 44.3392 10.5247C44.6236 10.399 44.9312 10.334 45.242 10.334C45.5528 10.334 45.86 10.399 46.1444 10.5247C46.4288 10.6505 46.6836 10.8343 46.8928 11.0643C47.1016 11.2944 47.2604 11.5656 47.3584 11.8605C47.4568 12.1555 47.492 12.4677 47.4624 12.7771C47.4928 13.0869 47.4576 13.3995 47.36 13.695C47.262 13.9904 47.1032 14.2621 46.8944 14.4926C46.6852 14.7231 46.43 14.9073 46.1456 15.0333C45.8608 15.1593 45.5532 15.2245 45.242 15.2245C44.9308 15.2245 44.6228 15.1593 44.3384 15.0333C44.0536 14.9073 43.7988 14.7231 43.5896 14.4926C43.3804 14.2621 43.222 13.9904 43.124 13.695C43.026 13.3995 42.9912 13.0869 43.0212 12.7771ZM46.5068 12.7771C46.5068 11.7565 46.048 11.1596 45.2436 11.1596C44.4356 11.1596 43.9812 11.7565 43.9812 12.7771C43.9812 13.806 44.4356 14.3983 45.2436 14.3983C46.048 14.3983 46.5068 13.8019 46.5068 12.7771Z" fill="white"/>
<path d="M53.3657 15.1345H52.4017L51.4285 11.6665H51.3549L50.3857 15.1345H49.4309L48.1333 10.4258H49.0757L49.9193 14.0188H49.9885L50.9569 10.4258H51.8481L52.8165 14.0188H52.8897L53.7293 10.4258H54.6585L53.3657 15.1345Z" fill="white"/>
<path d="M55.7505 10.4256H56.6453V11.1736H56.7145C56.8325 10.905 57.0309 10.6798 57.2829 10.5294C57.5349 10.379 57.8273 10.311 58.1197 10.3347C58.3489 10.3175 58.5789 10.352 58.7929 10.4358C59.0069 10.5196 59.1993 10.6504 59.3557 10.8186C59.5121 10.9868 59.6289 11.188 59.6969 11.4074C59.7653 11.6268 59.7833 11.8588 59.7497 12.086V15.1342H58.8201V12.3194C58.8201 11.5627 58.4913 11.1864 57.8041 11.1864C57.6485 11.1792 57.4933 11.2056 57.3489 11.264C57.2045 11.3224 57.0745 11.4113 56.9677 11.5246C56.8609 11.638 56.7801 11.773 56.7301 11.9206C56.6805 12.0682 56.6633 12.2248 56.6797 12.3796V15.1343H55.7505V10.4256Z" fill="white"/>
<path d="M61.23 8.58789H62.1596V15.1347H61.23V8.58789Z" fill="white"/>
<path d="M63.4509 12.7772C63.4213 12.4677 63.4569 12.1555 63.5549 11.8605C63.6533 11.5656 63.8117 11.2944 64.0209 11.0643C64.2301 10.8343 64.4849 10.6505 64.7693 10.5247C65.0533 10.3989 65.3609 10.334 65.6717 10.334C65.9825 10.334 66.2901 10.3989 66.5745 10.5247C66.8585 10.6505 67.1137 10.8343 67.3225 11.0643C67.5317 11.2944 67.6905 11.5656 67.7885 11.8605C67.8869 12.1555 67.9221 12.4677 67.8925 12.7772C67.9229 13.087 67.8877 13.3996 67.7897 13.6951C67.6921 13.9905 67.5333 14.2622 67.3241 14.4927C67.1149 14.7231 66.8601 14.9073 66.5753 15.0333C66.2909 15.1594 65.9829 15.2245 65.6717 15.2245C65.3605 15.2245 65.0529 15.1594 64.7681 15.0333C64.4837 14.9073 64.2285 14.7231 64.0193 14.4927C63.8101 14.2622 63.6517 13.9905 63.5537 13.6951C63.4557 13.3996 63.4209 13.087 63.4509 12.7772ZM66.9361 12.7772C66.9361 11.7565 66.4777 11.1596 65.6729 11.1596C64.8653 11.1596 64.4109 11.7565 64.4109 12.7772C64.4109 13.8061 64.8653 14.3983 65.6729 14.3983C66.4777 14.3983 66.9361 13.8019 66.9361 12.7772Z" fill="white"/>
<path d="M68.8711 13.8019C68.8711 12.9543 69.5023 12.4657 70.6223 12.3963L71.8979 12.3227V11.9163C71.8979 11.419 71.5691 11.1381 70.9339 11.1381C70.4151 11.1381 70.0559 11.3286 69.9527 11.6615H69.0527C69.1479 10.8527 69.9087 10.334 70.9767 10.334C72.1575 10.334 72.8231 10.9217 72.8231 11.9163V15.1335H71.9287V14.4718H71.8551C71.7059 14.7092 71.4963 14.9027 71.2479 15.0326C70.9991 15.1625 70.7207 15.2241 70.4407 15.2111C70.2431 15.2317 70.0431 15.2106 69.8543 15.1492C69.6651 15.0878 69.4911 14.9875 69.3431 14.8547C69.1955 14.722 69.0771 14.5597 68.9955 14.3783C68.9143 14.197 68.8719 14.0007 68.8711 13.8019ZM71.8979 13.3996V13.0059L70.7479 13.0794C70.0995 13.1228 69.8055 13.3434 69.8055 13.7585C69.8055 14.1823 70.1731 14.4289 70.6787 14.4289C70.8267 14.4439 70.9763 14.4289 71.1187 14.3849C71.2607 14.3409 71.3927 14.2687 71.5063 14.1727C71.6203 14.0767 71.7135 13.9587 71.7807 13.8259C71.8479 13.6931 71.8879 13.5481 71.8979 13.3996Z" fill="white"/>
<path d="M74.0444 12.7784C74.0444 11.2905 74.8096 10.3479 75.9992 10.3479C76.2932 10.3344 76.5856 10.4049 76.8412 10.5511C77.0968 10.6974 77.3056 10.9135 77.4432 11.174H77.5124V8.58789H78.4416V15.1347H77.5512V14.3908H77.4776C77.3296 14.6496 77.1136 14.8629 76.8532 15.0078C76.5924 15.1526 76.2972 15.2233 75.9992 15.2123C74.8012 15.2124 74.0444 14.2698 74.0444 12.7784ZM75.0044 12.7784C75.0044 13.7771 75.4752 14.3781 76.2628 14.3781C77.046 14.3781 77.53 13.7684 77.53 12.7825C77.53 11.8011 77.0408 11.1827 76.2628 11.1827C75.4804 11.1827 75.0044 11.7878 75.0044 12.7784Z" fill="white"/>
<path d="M82.2863 12.7771C82.2567 12.4677 82.2923 12.1555 82.3903 11.8605C82.4887 11.5656 82.6471 11.2944 82.8563 11.0643C83.0655 10.8343 83.3203 10.6505 83.6043 10.5247C83.8887 10.399 84.1963 10.334 84.5071 10.334C84.8179 10.334 85.1255 10.399 85.4095 10.5247C85.6939 10.6505 85.9487 10.8343 86.1579 11.0643C86.3667 11.2944 86.5255 11.5656 86.6235 11.8605C86.7219 12.1555 86.7571 12.4677 86.7275 12.7771C86.7579 13.0869 86.7227 13.3995 86.6251 13.695C86.5271 13.9904 86.3683 14.2621 86.1595 14.4926C85.9503 14.7231 85.6951 14.9073 85.4107 15.0333C85.1259 15.1593 84.8183 15.2245 84.5071 15.2245C84.1959 15.2245 83.8879 15.1593 83.6035 15.0333C83.3191 14.9073 83.0639 14.7231 82.8547 14.4926C82.6455 14.2621 82.4871 13.9904 82.3891 13.695C82.2911 13.3995 82.2563 13.0869 82.2863 12.7771ZM85.7719 12.7771C85.7719 11.7565 85.3131 11.1596 84.5087 11.1596C83.7007 11.1596 83.2463 11.7565 83.2463 12.7771C83.2463 13.806 83.7007 14.3983 84.5087 14.3983C85.3131 14.3983 85.7719 13.8019 85.7719 12.7771Z" fill="white"/>
<path d="M87.9741 10.4256H88.8689V11.1736H88.9381C89.0561 10.905 89.2549 10.6798 89.5065 10.5294C89.7585 10.379 90.0509 10.311 90.3433 10.3347C90.5725 10.3175 90.8025 10.352 91.0165 10.4358C91.2305 10.5196 91.4229 10.6504 91.5793 10.8186C91.7361 10.9868 91.8525 11.188 91.9209 11.4074C91.9889 11.6268 92.0069 11.8588 91.9733 12.086V15.1342H91.0441V12.3194C91.0441 11.5627 90.7153 11.1864 90.0281 11.1864C89.8725 11.1792 89.7169 11.2056 89.5725 11.264C89.4285 11.3224 89.2981 11.4113 89.1917 11.5246C89.0849 11.638 89.0037 11.773 88.9541 11.9206C88.9041 12.0682 88.8869 12.2248 88.9037 12.3796V15.1343H87.9741V10.4256Z" fill="white"/>
<path d="M97.2245 9.25195V10.4457H98.2449V11.2285H97.2245V13.6497C97.2245 14.1429 97.4277 14.3589 97.8905 14.3589C98.0089 14.3585 98.1273 14.3514 98.2449 14.3375V15.1115C98.0781 15.1414 97.9089 15.1573 97.7393 15.159C96.7057 15.159 96.2945 14.7955 96.2945 13.8876V11.2284H95.5469V10.4457H96.2945V9.25195H97.2245Z" fill="white"/>
<path d="M99.5137 8.58789H100.435V11.1827H100.508C100.632 10.9116 100.836 10.6851 101.093 10.5341C101.35 10.3832 101.647 10.3151 101.944 10.3393C102.172 10.3269 102.4 10.3649 102.611 10.4507C102.823 10.5365 103.013 10.6679 103.168 10.8356C103.322 11.0032 103.438 11.203 103.507 11.4207C103.576 11.6383 103.596 11.8685 103.566 12.0947V15.1347H102.636V12.3239C102.636 11.5718 102.285 11.1909 101.628 11.1909C101.469 11.1778 101.308 11.1998 101.158 11.2553C101.008 11.3107 100.871 11.3984 100.758 11.5121C100.645 11.6258 100.558 11.7628 100.504 11.9135C100.45 12.0643 100.429 12.2251 100.443 12.3847V15.1347H99.5137V8.58789Z" fill="white"/>
<path d="M108.984 13.8623C108.858 14.2926 108.585 14.6649 108.212 14.9139C107.839 15.1629 107.39 15.2729 106.944 15.2245C106.634 15.2327 106.326 15.1733 106.041 15.0504C105.756 14.9275 105.501 14.7441 105.294 14.5128C105.087 14.2816 104.933 14.0081 104.842 13.7113C104.752 13.4145 104.727 13.1015 104.769 12.7941C104.728 12.4857 104.753 12.1721 104.844 11.8744C104.934 11.5767 105.087 11.302 105.293 11.0687C105.499 10.8354 105.753 10.6491 106.037 10.5224C106.321 10.3956 106.629 10.3314 106.94 10.3341C108.25 10.3341 109.041 11.2292 109.041 12.7078V13.0321H105.716V13.0841C105.701 13.2569 105.723 13.4309 105.78 13.5948C105.836 13.7587 105.926 13.9089 106.044 14.036C106.162 14.163 106.306 14.2639 106.465 14.3323C106.624 14.4007 106.796 14.435 106.97 14.4331C107.192 14.4597 107.417 14.4197 107.617 14.3181C107.816 14.2164 107.981 14.0577 108.09 13.8622L108.984 13.8623ZM105.716 12.3448H108.094C108.106 12.1867 108.084 12.028 108.031 11.8788C107.978 11.7295 107.894 11.5931 107.785 11.4782C107.676 11.3633 107.544 11.2725 107.397 11.2117C107.251 11.1509 107.093 11.1213 106.935 11.125C106.774 11.1229 106.615 11.1531 106.466 11.2137C106.317 11.2743 106.182 11.3641 106.068 11.4778C105.954 11.5915 105.865 11.7267 105.804 11.8756C105.744 12.0245 105.714 12.1841 105.716 12.3448Z" fill="white"/>
</g>
<defs>
<clipPath id="clip0_1603_45012">
<rect width="123.6" height="40" fill="white" transform="translate(0.510254 0.515625)"/>
</clipPath>
</defs>
</svg>
