<svg width="136" height="41" viewBox="0 0 136 41" fill="none" xmlns="http://www.w3.org/2000/svg">
<g clip-path="url(#clip0_1603_44992)">
<path d="M131.326 0.916016H4.03502C2.04223 0.916016 0.426758 2.52779 0.426758 4.51602V36.516C0.426758 38.5042 2.04223 40.116 4.03502 40.116H131.326C133.319 40.116 134.935 38.5042 134.935 36.516V4.51602C134.935 2.52779 133.319 0.916016 131.326 0.916016Z" fill="#101010" stroke="white" stroke-opacity="0.5" stroke-width="2"/>
<path d="M47.5527 10.7589C47.5527 11.5969 47.3041 12.2639 46.8062 12.7619C46.2397 13.3539 45.5032 13.6499 44.5971 13.6499C43.7279 13.6499 42.9902 13.3499 42.384 12.7489C41.7758 12.1489 41.4731 11.4039 41.4731 10.5159C41.4731 9.62686 41.7758 8.88286 42.384 8.28186C42.9902 7.68186 43.7279 7.38086 44.5971 7.38086C45.0269 7.38086 45.4398 7.46486 45.8307 7.63286C46.2228 7.80086 46.5363 8.02386 46.7721 8.30286L46.2429 8.83086C45.8448 8.35686 45.2967 8.11886 44.5971 8.11886C43.9636 8.11886 43.4164 8.34086 42.9545 8.78486C42.4923 9.22986 42.2618 9.80586 42.2618 10.5159C42.2618 11.2249 42.4923 11.8019 42.9545 12.2459C43.4164 12.6909 43.9636 12.9119 44.5971 12.9119C45.2686 12.9119 45.8279 12.6889 46.2769 12.2419C46.5676 11.9509 46.7348 11.5469 46.7801 11.0269H44.5971V10.3059H47.5106C47.5386 10.4629 47.5527 10.6139 47.5527 10.7589Z" fill="white"/>
<path d="M47.5527 10.7589C47.5527 11.5969 47.3041 12.2639 46.8062 12.7619C46.2397 13.3539 45.5032 13.6499 44.5971 13.6499C43.7279 13.6499 42.9902 13.3499 42.384 12.7489C41.7758 12.1489 41.4731 11.4039 41.4731 10.5159C41.4731 9.62686 41.7758 8.88286 42.384 8.28186C42.9902 7.68186 43.7279 7.38086 44.5971 7.38086C45.0269 7.38086 45.4398 7.46486 45.8307 7.63286C46.2228 7.80086 46.5363 8.02386 46.7721 8.30286L46.2429 8.83086C45.8448 8.35686 45.2967 8.11886 44.5971 8.11886C43.9636 8.11886 43.4164 8.34086 42.9545 8.78486C42.4923 9.22986 42.2618 9.80586 42.2618 10.5159C42.2618 11.2249 42.4923 11.8019 42.9545 12.2459C43.4164 12.6909 43.9636 12.9119 44.5971 12.9119C45.2686 12.9119 45.8279 12.6889 46.2769 12.2419C46.5676 11.9509 46.7348 11.5469 46.7801 11.0269H44.5971V10.3059H47.5106C47.5386 10.4629 47.5527 10.6139 47.5527 10.7589Z" fill="white"/>
<path d="M52.1729 8.25262H49.4346V10.1546H51.9042V10.8756H49.4346V12.7776H52.1729V13.5156H48.6616V7.51562H52.1729V8.25262Z" fill="white"/>
<path d="M52.1729 8.25262H49.4346V10.1546H51.9042V10.8756H49.4346V12.7776H52.1729V13.5156H48.6616V7.51562H52.1729V8.25262Z" fill="white"/>
<path d="M55.4309 13.5156H54.6584V8.25262H52.9785V7.51562H57.1108V8.25262H55.4309V13.5156Z" fill="white"/>
<path d="M55.4309 13.5156H54.6584V8.25262H52.9785V7.51562H57.1108V8.25262H55.4309V13.5156Z" fill="white"/>
<path d="M60.1006 7.51562H60.8736V13.5156H60.1006V7.51562Z" fill="white"/>
<path d="M64.3006 13.5156H63.528V8.25262H61.8481V7.51562H65.9804V8.25262H64.3006V13.5156Z" fill="white"/>
<path d="M64.3006 13.5156H63.528V8.25262H61.8481V7.51562H65.9804V8.25262H64.3006V13.5156Z" fill="white"/>
<path d="M69.9644 12.2379C70.4095 12.6879 70.9539 12.9119 71.5982 12.9119C72.2429 12.9119 72.7869 12.6879 73.2319 12.2379C73.6769 11.7879 73.9006 11.2139 73.9006 10.5159C73.9006 9.81786 73.6769 9.24286 73.2319 8.79386C72.7869 8.34386 72.2429 8.11886 71.5982 8.11886C70.9539 8.11886 70.4095 8.34386 69.9644 8.79386C69.5206 9.24286 69.2969 9.81786 69.2969 10.5159C69.2969 11.2139 69.5206 11.7879 69.9644 12.2379ZM73.8032 12.7399C73.2119 13.3469 72.4774 13.6499 71.5982 13.6499C70.7194 13.6499 69.9845 13.3469 69.3943 12.7399C68.803 12.1339 68.5083 11.3929 68.5083 10.5159C68.5083 9.63886 68.803 8.89686 69.3943 8.29086C69.9845 7.68486 70.7194 7.38086 71.5982 7.38086C72.4722 7.38086 73.2051 7.68586 73.7992 8.29486C74.3926 8.90386 74.6893 9.64386 74.6893 10.5159C74.6893 11.3929 74.3938 12.1339 73.8032 12.7399Z" fill="white"/>
<path d="M69.9644 12.2379C70.4095 12.6879 70.9539 12.9119 71.5982 12.9119C72.2429 12.9119 72.7869 12.6879 73.2319 12.2379C73.6769 11.7879 73.9006 11.2139 73.9006 10.5159C73.9006 9.81786 73.6769 9.24286 73.2319 8.79386C72.7869 8.34386 72.2429 8.11886 71.5982 8.11886C70.9539 8.11886 70.4095 8.34386 69.9644 8.79386C69.5206 9.24286 69.2969 9.81786 69.2969 10.5159C69.2969 11.2139 69.5206 11.7879 69.9644 12.2379ZM73.8032 12.7399C73.2119 13.3469 72.4774 13.6499 71.5982 13.6499C70.7194 13.6499 69.9845 13.3469 69.3943 12.7399C68.803 12.1339 68.5083 11.3929 68.5083 10.5159C68.5083 9.63886 68.803 8.89686 69.3943 8.29086C69.9845 7.68486 70.7194 7.38086 71.5982 7.38086C72.4722 7.38086 73.2051 7.68586 73.7992 8.29486C74.3926 8.90386 74.6893 9.64386 74.6893 10.5159C74.6893 11.3929 74.3938 12.1339 73.8032 12.7399Z" fill="white"/>
<path d="M75.7739 13.5156V7.51562H76.7141L79.6368 12.1826H79.6708L79.6368 11.0266V7.51562H80.4105V13.5156H79.6035L76.5457 8.62162H76.5124L76.5457 9.77862V13.5156H75.7739Z" fill="white"/>
<path d="M75.7739 13.5156V7.51562H76.7141L79.6368 12.1826H79.6708L79.6368 11.0266V7.51562H80.4105V13.5156H79.6035L76.5457 8.62162H76.5124L76.5457 9.77862V13.5156H75.7739Z" fill="white"/>
<path d="M107.207 30.5155H109.077V18.0145H107.207V30.5155ZM124.052 22.5175L121.908 27.9375H121.844L119.619 22.5175H117.604L120.941 30.0925L119.039 34.3064H120.989L126.132 22.5175H124.052ZM113.446 29.0955C112.832 29.0955 111.979 28.7905 111.979 28.0335C111.979 27.0695 113.042 26.6995 113.961 26.6995C114.783 26.6995 115.171 26.8765 115.67 27.1175C115.525 28.2755 114.525 29.0955 113.446 29.0955ZM113.671 22.2445C112.317 22.2445 110.914 22.8395 110.335 24.1585L111.995 24.8495C112.349 24.1585 113.01 23.9325 113.703 23.9325C114.671 23.9325 115.654 24.5115 115.67 25.5415V25.6695C115.331 25.4765 114.607 25.1875 113.719 25.1875C111.93 25.1875 110.108 26.1685 110.108 28.0015C110.108 29.6745 111.576 30.7525 113.219 30.7525C114.477 30.7525 115.171 30.1895 115.606 29.5295H115.67V30.4945H117.475V25.7015C117.475 23.4825 115.815 22.2445 113.671 22.2445ZM102.113 24.0395H99.4531V19.7545H102.113C103.511 19.7545 104.305 20.9095 104.305 21.8965C104.305 22.8655 103.511 24.0395 102.113 24.0395ZM102.065 18.0145H97.5836V30.5155H99.4531V25.7795H102.065C104.138 25.7795 106.175 24.2815 106.175 21.8965C106.175 19.5115 104.138 18.0145 102.065 18.0145ZM77.6279 29.0975C76.3361 29.0975 75.2545 28.0185 75.2545 26.5365C75.2545 25.0385 76.3361 23.9425 77.6279 23.9425C78.904 23.9425 79.9043 25.0385 79.9043 26.5365C79.9043 28.0185 78.904 29.0975 77.6279 29.0975ZM79.776 23.2175H79.7107C79.2909 22.7185 78.4839 22.2675 77.4667 22.2675C75.3347 22.2675 73.3814 24.1355 73.3814 26.5365C73.3814 28.9205 75.3347 30.7735 77.4667 30.7735C78.4839 30.7735 79.2909 30.3225 79.7107 29.8065H79.776V30.4195C79.776 32.0465 78.904 32.9164 77.4988 32.9164C76.3522 32.9164 75.6414 32.0945 75.3507 31.4015L73.7202 32.0785C74.188 33.2064 75.4321 34.5914 77.4988 34.5914C79.6946 34.5914 81.5521 33.3024 81.5521 30.1615V22.5245H79.776V23.2175ZM82.8438 30.5155H84.7173V18.0135H82.8438V30.5155ZM87.4776 26.3915C87.4295 24.7485 88.7534 23.9105 89.7055 23.9105C90.4492 23.9105 91.0787 24.2805 91.2884 24.8125L87.4776 26.3915ZM93.291 24.9735C92.9361 24.0235 91.8537 22.2675 89.6414 22.2675C87.4456 22.2675 85.6214 23.9905 85.6214 26.5205C85.6214 28.9045 87.4295 30.7735 89.8511 30.7735C91.8056 30.7735 92.9361 29.5815 93.404 28.8885L91.9507 27.9215C91.4668 28.6305 90.8041 29.0975 89.8511 29.0975C88.8989 29.0975 88.2201 28.6625 87.7843 27.8095L93.4842 25.4565L93.291 24.9735ZM47.879 23.5725V25.3765H52.2061C52.0766 26.3915 51.7378 27.1325 51.2219 27.6475C50.5912 28.2765 49.6062 28.9695 47.879 28.9695C45.2141 28.9695 43.1313 26.8265 43.1313 24.1685C43.1313 21.5095 45.2141 19.3675 47.879 19.3675C49.3163 19.3675 50.3659 19.9315 51.1405 20.6565L52.4166 19.3835C51.3341 18.3525 49.8976 17.5625 47.879 17.5625C44.2298 17.5625 41.1616 20.5275 41.1616 24.1685C41.1616 27.8095 44.2298 30.7735 47.879 30.7735C49.8487 30.7735 51.3341 30.1285 52.4968 28.9205C53.6923 27.7285 54.0632 26.0535 54.0632 24.6995C54.0632 24.2805 54.0311 23.8945 53.9661 23.5725H47.879ZM58.9836 29.0975C57.6915 29.0975 56.5769 28.0345 56.5769 26.5205C56.5769 24.9895 57.6915 23.9425 58.9836 23.9425C60.2746 23.9425 61.3891 24.9895 61.3891 26.5205C61.3891 28.0345 60.2746 29.0975 58.9836 29.0975ZM58.9836 22.2675C56.625 22.2675 54.7038 24.0555 54.7038 26.5205C54.7038 28.9695 56.625 30.7735 58.9836 30.7735C61.341 30.7735 63.2622 28.9695 63.2622 26.5205C63.2622 24.0555 61.341 22.2675 58.9836 22.2675ZM68.3178 29.0975C67.026 29.0975 65.9115 28.0345 65.9115 26.5205C65.9115 24.9895 67.026 23.9425 68.3178 23.9425C69.6099 23.9425 70.7233 24.9895 70.7233 26.5205C70.7233 28.0345 69.6099 29.0975 68.3178 29.0975ZM68.3178 22.2675C65.9604 22.2675 64.0392 24.0555 64.0392 26.5205C64.0392 28.9695 65.9604 30.7735 68.3178 30.7735C70.6752 30.7735 72.5964 28.9695 72.5964 26.5205C72.5964 24.0555 70.6752 22.2675 68.3178 22.2675Z" fill="white"/>
<path d="M20.7905 19.9395L10.1191 31.2394C10.1201 31.2414 10.1201 31.2444 10.1211 31.2464C10.4489 32.4734 11.5715 33.3764 12.9045 33.3764C13.4377 33.3764 13.9379 33.2324 14.3669 32.9804L14.4009 32.9604L26.4124 26.0455L20.7905 19.9395Z" fill="#EA4335"/>
<path d="M31.586 18.0157L31.576 18.0087L26.3902 15.0098L20.5479 20.1967L26.4112 26.0447L31.569 23.0757C32.4731 22.5877 33.0875 21.6367 33.0875 20.5407C33.0875 19.4507 32.4821 18.5047 31.586 18.0157Z" fill="#FBBC04"/>
<path d="M10.1187 9.79297C10.0546 10.029 10.0205 10.277 10.0205 10.533V30.5008C10.0205 30.7568 10.0546 31.0048 10.1197 31.2398L21.1569 20.2289L10.1187 9.79297Z" fill="#4285F4"/>
<path d="M20.8692 20.5162L26.3918 15.0073L14.3944 8.06725C13.9584 7.80625 13.4493 7.65625 12.905 7.65625C11.572 7.65625 10.4474 8.56125 10.1197 9.78925C10.1197 9.79025 10.1187 9.79125 10.1187 9.79225L20.8692 20.5162Z" fill="#34A853"/>
</g>
<defs>
<clipPath id="clip0_1603_44992">
<rect width="135.51" height="40" fill="white" transform="translate(0 0.515625)"/>
</clipPath>
</defs>
</svg>
