<svg width="18" height="18" viewBox="0 0 18 18" fill="none" xmlns="http://www.w3.org/2000/svg">
<path d="M5.01259 7.65517C4.7539 7.38675 4.76178 6.95943 5.03021 6.70074C5.29863 6.44205 5.72595 6.44993 5.98464 6.71836L9.47998 10.3452C9.73868 10.6136 9.73079 11.0409 9.46236 11.2996C9.19394 11.5583 8.76662 11.5504 8.50793 11.282L5.01259 7.65517Z" fill="#616161"/>
<path d="M8.5199 10.3451C8.26121 10.6136 8.2691 11.0409 8.53752 11.2996C8.80595 11.5583 9.23326 11.5504 9.49195 11.282L12.9873 7.65513C13.246 7.3867 13.2381 6.95939 12.9697 6.70069C12.7012 6.442 12.2739 6.44989 12.0152 6.71831L8.5199 10.3451Z" fill="#616161"/>
</svg>
