<svg width="64" height="64" viewBox="0 0 64 64" fill="none" xmlns="http://www.w3.org/2000/svg">
<path d="M32.0201 29.1816C37.7013 29.1816 42.3068 24.5761 42.3068 18.895C42.3068 13.2138 37.7013 8.60828 32.0201 8.60828C26.3389 8.60828 21.7334 13.2138 21.7334 18.895C21.7334 24.5761 26.3389 29.1816 32.0201 29.1816Z" fill="white" stroke="black" stroke-width="3.69441" stroke-linecap="round" stroke-linejoin="round"/>
<path d="M47.4595 50.1065C46.8195 53.1473 43.8892 55.3913 40.7818 55.3913H23.2312C20.1338 55.3913 17.2097 53.1626 16.5598 50.1341C16.1477 48.2137 15.7949 46.0494 15.7949 44.0953C15.8421 35.2698 21.1596 29.1818 31.8887 29.1818C42.6342 29.1818 48.092 35.2815 48.206 44.0953C48.206 46.0401 47.8622 48.1929 47.4595 50.1065Z" fill="#D9D9D9"/>
<path d="M18.1396 54.7059C17.762 54.1397 17.2477 53.1351 16.7664 51.0586C16.2731 48.9302 15.7949 46.3702 15.7949 44.0953C15.8421 35.2698 21.1596 29.1818 31.8887 29.1818C42.6342 29.1818 48.092 35.2815 48.206 44.0953C48.206 48.5903 46.3695 54.1969 46.213 55.3913" stroke="black" stroke-width="3.69441" stroke-linecap="round" stroke-linejoin="round"/>
<path d="M32.2242 33.9014H31.8133C30.7094 33.9014 30.0662 35.148 30.7059 36.0476C30.9383 36.3744 31.0145 36.787 30.9141 37.1752L28.0602 48.2117C27.5951 50.0104 28.2935 51.909 29.8132 52.9776L30.2233 53.2659C31.7981 54.3732 33.9466 54.1585 35.2712 52.7615C36.1914 51.7909 36.547 50.4149 36.2121 49.1201L33.1234 37.1752C33.023 36.787 33.0992 36.3744 33.3315 36.0476C33.9713 35.148 33.3281 33.9014 32.2242 33.9014Z" fill="black"/>
<path d="M33.1234 37.1752L33.9513 36.9611L33.1234 37.1752ZM36.2121 49.1201L35.3842 49.3342V49.3342L36.2121 49.1201ZM30.2233 53.2659L30.7151 52.5663H30.7151L30.2233 53.2659ZM29.8132 52.9776L29.3213 53.6772H29.3213L29.8132 52.9776ZM28.0602 48.2117L28.8882 48.4258L28.0602 48.2117ZM30.9141 37.1752L30.0861 36.9611L30.9141 37.1752ZM30.7059 36.0476L31.4029 35.552L31.4029 35.552L30.7059 36.0476ZM35.2712 52.7615L35.8918 53.3499V53.3499L35.2712 52.7615ZM33.3315 36.0476L34.0285 36.5432L34.0285 36.5432L33.3315 36.0476ZM31.8133 34.7566H32.2242V33.0462H31.8133V34.7566ZM32.2954 37.3893L35.3842 49.3342L37.0401 48.906L33.9513 36.9611L32.2954 37.3893ZM30.7151 52.5663L30.3051 52.278L29.3213 53.6772L29.7314 53.9655L30.7151 52.5663ZM28.8882 48.4258L31.7421 37.3893L30.0861 36.9611L27.2322 47.9976L28.8882 48.4258ZM31.7421 37.3893C31.9056 36.7568 31.7815 36.0844 31.4029 35.552L30.009 36.5432C30.0951 36.6643 30.1233 36.8172 30.0861 36.9611L31.7421 37.3893ZM30.3051 52.278C29.0767 51.4143 28.5122 49.8797 28.8882 48.4258L27.2322 47.9976C26.678 50.1411 27.5102 52.4037 29.3213 53.6772L30.3051 52.278ZM34.6506 52.1731C33.6179 53.2622 31.9429 53.4296 30.7151 52.5663L29.7314 53.9655C31.6532 55.3168 34.2753 55.0548 35.8918 53.3499L34.6506 52.1731ZM35.3842 49.3342C35.6452 50.3437 35.368 51.4164 34.6506 52.1731L35.8918 53.3499C37.0148 52.1655 37.4487 50.4862 37.0401 48.906L35.3842 49.3342ZM32.6346 35.552C32.256 36.0844 32.1319 36.7568 32.2954 37.3893L33.9513 36.9611C33.9141 36.8172 33.9424 36.6643 34.0285 36.5432L32.6346 35.552ZM32.2242 34.7566C32.6333 34.7566 32.8717 35.2186 32.6346 35.552L34.0285 36.5432C35.0708 35.0774 34.0229 33.0462 32.2242 33.0462V34.7566ZM31.8133 33.0462C30.0146 33.0462 28.9666 35.0774 30.009 36.5432L31.4029 35.552C31.1658 35.2186 31.4042 34.7566 31.8133 34.7566V33.0462Z" fill="black"/>
</svg>
