<svg width="24" height="25" viewBox="0 0 24 25" fill="none" xmlns="http://www.w3.org/2000/svg">
<g clip-path="url(#clip0_1282_35312)">
<path d="M12.66 19.1173C14.1175 17.8542 17.4822 14.5396 17.4822 10.8554C17.4822 7.82757 15.0277 5.37305 11.9999 5.37305C8.9721 5.37305 6.51758 7.82757 6.51758 10.8554C6.51758 14.5396 9.88229 17.8542 11.3398 19.1173C11.7228 19.4492 12.277 19.4492 12.66 19.1173Z" fill="#2B2F8F" stroke="white" stroke-width="1.71429" stroke-linecap="round" stroke-linejoin="round"/>
<path d="M11.9999 12.778C13.24 12.778 14.2453 11.7727 14.2453 10.5326C14.2453 9.29243 13.24 8.28711 11.9999 8.28711C10.7597 8.28711 9.75439 9.29243 9.75439 10.5326C9.75439 11.7727 10.7597 12.778 11.9999 12.778Z" stroke="white" stroke-width="1.71429" stroke-linecap="round" stroke-linejoin="round"/>
</g>
<defs>
<clipPath id="clip0_1282_35312">
<rect width="16" height="16" fill="white" transform="translate(4 4.51562)"/>
</clipPath>
</defs>
</svg>
