<svg width="24" height="25" viewBox="0 0 24 25" fill="none" xmlns="http://www.w3.org/2000/svg">
<path d="M5.17933 16.5584C5.31523 17.653 6.19954 18.5177 7.2966 18.6325C8.81466 18.7911 10.388 18.9586 12.0003 18.9586C13.6126 18.9586 15.1859 18.7911 16.7039 18.6325C17.801 18.5177 18.6853 17.653 18.8212 16.5584C18.9835 15.2515 19.1431 13.8999 19.1431 12.5164C19.1431 11.133 18.9835 9.78141 18.8212 8.4745C18.6853 7.37988 17.801 6.51514 16.7039 6.40046C15.1859 6.24177 13.6126 6.07422 12.0003 6.07422C10.388 6.07422 8.81464 6.24177 7.2966 6.40046C6.19954 6.51514 5.31523 7.37988 5.17932 8.4745C5.01707 9.78141 4.85742 11.133 4.85742 12.5164C4.85742 13.8999 5.01707 15.2515 5.17933 16.5584Z" fill="#2B2F8F" stroke="white" stroke-width="1.71429"/>
<path d="M5.21094 8.17773L10.5848 12.4148C11.4148 13.0693 12.5852 13.0693 13.4152 12.4148L18.789 8.17773" stroke="white" stroke-width="1.71429" stroke-linejoin="round"/>
</svg>
