<svg width="24" height="25" viewBox="0 0 24 25" fill="none" xmlns="http://www.w3.org/2000/svg">
<path d="M14.0113 19.373C14.7151 19.827 15.5538 20.0249 16.3863 19.9333C17.2189 19.8417 17.9945 19.4663 18.5827 18.8701L19.097 18.3673C19.3225 18.1366 19.4487 17.8269 19.4487 17.5044C19.4487 17.1819 19.3225 16.8722 19.097 16.6416L16.9142 14.4816C16.6855 14.2568 16.3777 14.1309 16.057 14.1309C15.7364 14.1309 15.4286 14.2568 15.1999 14.4816C14.9693 14.707 14.6596 14.8333 14.337 14.8333C14.0145 14.8333 13.7048 14.707 13.4742 14.4816L10.0456 11.053C9.93123 10.9403 9.84041 10.8059 9.77841 10.6578C9.71642 10.5097 9.68449 10.3507 9.68449 10.1901C9.68449 10.0295 9.71642 9.87057 9.77841 9.72244C9.84041 9.57431 9.93123 9.43998 10.0456 9.32727C10.2704 9.09858 10.3963 8.79077 10.3963 8.47013C10.3963 8.14949 10.2704 7.84167 10.0456 7.61298L7.87418 5.44155C7.64356 5.21609 7.33385 5.08984 7.01132 5.08984C6.6888 5.08984 6.37908 5.21609 6.14846 5.44155L5.64561 5.95584C5.04943 6.54412 4.67399 7.31973 4.58241 8.15226C4.49083 8.98479 4.6887 9.82347 5.14275 10.5273C7.50852 14.0138 10.5187 17.0162 14.0113 19.373Z" fill="#2B2F8F" stroke="white" stroke-width="1.71429" stroke-linecap="round" stroke-linejoin="round"/>
</svg>
