<svg width="36" height="37" viewBox="0 0 36 37" fill="none" xmlns="http://www.w3.org/2000/svg">
<path d="M14.0454 12.4707C14.0485 12.8699 13.8944 13.2543 13.6164 13.5409C13.3384 13.8274 12.9588 13.9931 12.5596 14.0021C12.1613 13.9875 11.7838 13.8204 11.5052 13.5354C11.2266 13.2504 11.0681 12.8692 11.0625 12.4707C11.0798 12.0824 11.2441 11.7152 11.5221 11.4435C11.8001 11.1719 12.171 11.0161 12.5596 11.0078C12.9471 11.0163 13.3167 11.1724 13.5929 11.4443C13.869 11.7163 14.0309 12.0834 14.0454 12.4707ZM11.2225 16.7221C11.2225 15.8421 11.7825 15.9792 12.5596 15.9792C13.3368 15.9792 13.8854 15.8421 13.8854 16.7221V25.2935C13.8854 26.185 13.3254 26.0021 12.5596 26.0021C11.7939 26.0021 11.2225 26.185 11.2225 25.2935V16.7221Z" stroke="white" stroke-width="1.14081" stroke-linecap="round" stroke-linejoin="round"/>
<path d="M16.1938 16.722C16.1938 16.2306 16.3767 16.0477 16.6624 15.9906C16.9481 15.9334 17.931 15.9906 18.2738 15.9906C18.6167 15.9906 18.7092 16.6804 18.6978 17.1032C18.991 16.7096 19.4251 16.268 19.8733 16.0679C20.3215 15.8679 20.8746 15.7051 21.3634 15.7496C21.8435 15.7202 22.2633 15.8732 22.7137 16.0418C23.1641 16.2104 23.574 16.4719 23.9167 16.8092C24.2595 17.1466 24.5274 17.5523 24.7031 18C24.8789 18.4476 24.9584 18.9273 24.9367 19.4077V25.2591C24.9367 26.1506 24.3881 25.9677 23.611 25.9677C22.8338 25.9677 22.2853 26.1506 22.2853 25.2591V20.6877C22.3054 20.4524 22.2746 20.2156 22.195 19.9933C22.1155 19.7709 21.989 19.5683 21.8242 19.3992C21.6595 19.2301 21.4602 19.0984 21.24 19.0131C21.0198 18.9278 20.7839 18.8909 20.5481 18.9049C20.3135 18.8989 20.0803 18.9428 19.8639 19.0338C19.6476 19.1247 19.453 19.2606 19.2931 19.4324C19.1332 19.6042 19.0116 19.808 18.9363 20.0303C18.8611 20.2526 18.834 20.4884 18.8567 20.722V25.2934C18.8567 26.1849 18.2967 26.002 17.5196 26.002C16.7424 26.002 16.1938 26.1849 16.1938 25.2934V16.722Z" stroke="white" stroke-width="1.14081" stroke-linecap="round" stroke-linejoin="round"/>
<rect x="0.5" y="1.01562" width="35" height="35" rx="17.5" stroke="#E5E5E5"/>
</svg>
