<svg width="64" height="64" viewBox="0 0 64 64" fill="none" xmlns="http://www.w3.org/2000/svg">
<path d="M46.6578 22.8392C50.7053 22.8392 53.9865 19.558 53.9865 15.5105C53.9865 11.463 50.7053 8.18182 46.6578 8.18182C42.6103 8.18182 39.3291 11.463 39.3291 15.5105C39.3291 19.558 42.6103 22.8392 46.6578 22.8392Z" stroke="black" stroke-width="3.69441" stroke-linecap="round" stroke-linejoin="round"/>
<path d="M46.6579 30.1678C40.4224 30.1678 38.4312 42.052 37.7954 49.6419C37.51 53.0483 40.2682 55.8182 43.6866 55.8182H49.6293C53.0477 55.8182 55.8059 53.0483 55.5205 49.6419C54.8846 42.052 52.8935 30.1678 46.6579 30.1678Z" fill="#D9D9D9" stroke="black" stroke-width="3.69441" stroke-linecap="round" stroke-linejoin="round"/>
<path d="M17.3433 22.8392C21.3909 22.8392 24.672 19.558 24.672 15.5105C24.672 11.463 21.3909 8.18182 17.3433 8.18182C13.2958 8.18182 10.0146 11.463 10.0146 15.5105C10.0146 19.558 13.2958 22.8392 17.3433 22.8392Z" stroke="black" stroke-width="3.69441" stroke-linecap="round" stroke-linejoin="round"/>
<path d="M17.3425 55.8182C11.107 55.8182 9.11578 43.934 8.47994 36.3441C8.19457 32.9377 10.9528 30.1678 14.3711 30.1678H20.3139C23.7322 30.1678 26.4904 32.9377 26.2051 36.3441C25.5692 43.934 23.578 55.8182 17.3425 55.8182Z" fill="#D9D9D9" stroke="black" stroke-width="3.69441" stroke-linecap="round" stroke-linejoin="round"/>
</svg>
