<svg width="64" height="64" viewBox="0 0 64 64" fill="none" xmlns="http://www.w3.org/2000/svg">
<path d="M55.2701 48.6981V38.1895C55.2701 34.7712 52.499 32.0001 49.0807 32.0001H43.5586C40.1403 32.0001 37.3691 34.7712 37.3691 38.1895V48.6981C37.3691 52.1165 40.1403 54.8876 43.5586 54.8876H49.0807C52.499 54.8876 55.2701 52.1165 55.2701 48.6981Z" stroke="black" stroke-width="3.6943" stroke-linecap="round" stroke-linejoin="round"/>
<path d="M55.2701 17.9335V16.7083C55.2701 13.29 52.499 10.5189 49.0807 10.5189H43.5586C40.1403 10.5189 37.3691 13.29 37.3691 16.7083V17.9335C37.3691 21.3518 40.1403 24.123 43.5586 24.123H49.0807C52.499 24.123 55.2701 21.3518 55.2701 17.9335Z" fill="#D9D9D9" stroke="black" stroke-width="3.6943" stroke-linecap="round" stroke-linejoin="round"/>
<path d="M28.6322 25.8105V16.7083C28.6322 13.29 25.8611 10.5189 22.4427 10.5189H14.917C11.4987 10.5189 8.72754 13.29 8.72754 16.7083V25.8105C8.72754 29.2289 11.4987 32 14.917 32H22.4427C25.8611 32 28.6322 29.2289 28.6322 25.8105Z" stroke="black" stroke-width="3.6943" stroke-linecap="round" stroke-linejoin="round"/>
<path d="M20.452 38.9752H16.9073C13.4889 38.9752 10.7178 41.7463 10.7178 45.1647V49.0818C10.7178 52.5002 13.4889 55.2713 16.9073 55.2713H20.452C23.8704 55.2713 26.6415 52.5002 26.6415 49.0818V45.1647C26.6415 41.7463 23.8704 38.9752 20.452 38.9752Z" fill="#D9D9D9" stroke="black" stroke-width="3.6943" stroke-linecap="round" stroke-linejoin="round"/>
</svg>
