<svg width="52" height="52" viewBox="0 0 52 52" fill="none" xmlns="http://www.w3.org/2000/svg">
<rect width="52" height="52" rx="8" fill="#FF732E"/>
<path d="M27.4966 19.2695V25.3919L32.3283 30.2237" stroke="white" stroke-width="1.71" stroke-linecap="round"/>
<path d="M22.2769 21.1895H12.5142" stroke="white" stroke-width="1.71" stroke-linecap="round"/>
<path d="M23.0714 25.8711H13.3086" stroke="white" stroke-width="1.71" stroke-linecap="round"/>
<path d="M24.2296 30.5703H14.4668" stroke="white" stroke-width="1.71" stroke-linecap="round"/>
<path d="M20.6529 18.4054C20.2756 18.0134 20.2851 17.3859 20.708 17.0435C22.1926 15.8411 23.9573 15.0232 25.8453 14.6705C28.0572 14.2574 30.3416 14.5008 32.4168 15.3707C34.4919 16.2405 36.267 17.6989 37.5231 19.5657C38.7793 21.4326 39.4614 23.6263 39.4854 25.8763C39.5095 28.1262 38.8743 30.334 37.6584 32.2273C36.4424 34.1206 34.6989 35.6164 32.6427 36.5304C30.5866 37.4444 28.308 37.7366 26.0878 37.3708C24.1926 37.0585 22.4108 36.2785 20.9009 35.1081C20.4708 34.7747 20.4479 34.1477 20.8168 33.7476C21.1857 33.3476 21.8063 33.327 22.2422 33.6527C23.4648 34.5664 24.8927 35.1768 26.4081 35.4265C28.2487 35.7297 30.1378 35.4875 31.8423 34.7298C33.5469 33.9721 34.9923 32.732 36.0004 31.1624C37.0084 29.5929 37.5349 27.7626 37.515 25.8973C37.4951 24.032 36.9296 22.2134 35.8883 20.6657C34.8469 19.1181 33.3753 17.9091 31.655 17.188C29.9346 16.4668 28.0408 16.2651 26.2071 16.6076C24.6974 16.8895 23.2828 17.5303 22.08 18.4699C21.6512 18.8049 21.0303 18.7975 20.6529 18.4054Z" fill="white"/>
<path d="M21.6882 19.2746C21.4376 18.7554 21.544 18.1272 21.9937 17.7666C23.3616 16.6699 24.9827 15.9234 26.7159 15.5996C28.7666 15.2166 30.8847 15.4422 32.8087 16.2488C34.7327 17.0553 36.3786 18.4074 37.5432 20.1383C38.7078 21.8692 39.3403 23.9032 39.3626 25.9893C39.3849 28.0754 38.796 30.1224 37.6686 31.8778C36.5412 33.6332 34.9246 35.0201 33.0182 35.8676C31.1119 36.715 28.9991 36.9858 26.9406 36.6467C25.1959 36.3592 23.5548 35.6442 22.1612 34.5718C21.7102 34.2247 21.5877 33.6091 21.8163 33.088L24.6829 26.5515C24.8394 26.1947 24.832 25.7873 24.6626 25.4364L21.6882 19.2746Z" fill="white" fill-opacity="0.2"/>
</svg>
