<svg width="52" height="52" viewBox="0 0 52 52" fill="none" xmlns="http://www.w3.org/2000/svg">
<rect width="52" height="52" rx="8" fill="#44B299"/>
<g clip-path="url(#clip0_1266_35168)">
<path d="M13.7393 26.7994L18.8441 20.9499C19.034 20.7323 19.3087 20.6074 19.5976 20.6074H25.8567H32.557C32.8512 20.6074 33.1304 20.7369 33.3204 20.9614L38.2608 26.7994L25.8567 41.1387L13.7393 26.7994Z" fill="white" fill-opacity="0.2"/>
<path d="M13.7393 26.7994L18.8441 20.9499C19.034 20.7323 19.3087 20.6074 19.5976 20.6074H25.8567M13.7393 26.7994L25.8567 41.1387M13.7393 26.7994H22.3771M38.2608 26.7994L33.3204 20.9614C33.1304 20.7369 32.8512 20.6074 32.557 20.6074H25.8567M38.2608 26.7994L25.8567 41.1387M38.2608 26.7994H29.5002M25.8567 41.1387L22.3771 26.7994M25.8567 41.1387L29.5002 26.7994M29.5002 26.7994L25.8567 20.6074M29.5002 26.7994H22.3771M25.8567 20.6074L22.3771 26.7994" stroke="white" stroke-width="1.7" stroke-linecap="round"/>
<path d="M36.0785 13.8887L33.9907 17.573" stroke="white" stroke-width="1.71" stroke-linecap="round"/>
<path d="M26.1025 10.8594V15.4034" stroke="white" stroke-width="1.71" stroke-linecap="round"/>
<path d="M15.9214 13.7656L18.2139 17.6547" stroke="white" stroke-width="1.71" stroke-linecap="round"/>
</g>
<defs>
<clipPath id="clip0_1266_35168">
<rect width="32" height="32" fill="white" transform="translate(10 10)"/>
</clipPath>
</defs>
</svg>
