<svg width="52" height="52" viewBox="0 0 52 52" fill="none" xmlns="http://www.w3.org/2000/svg">
<rect width="52" height="52" rx="8" fill="#FEC553"/>
<path d="M26.2534 35.832H35.5868" stroke="white" stroke-width="1.71" stroke-linecap="round"/>
<path d="M26.2534 19.9824H35.5868" stroke="white" stroke-width="1.71" stroke-linecap="round"/>
<mask id="path-4-inside-1_1266_33990" fill="white">
<rect x="12.4136" y="27.7402" width="11.2595" height="11.2595" rx="0.845285"/>
</mask>
<rect x="12.4136" y="27.7402" width="11.2595" height="11.2595" rx="0.845285" fill="white" fill-opacity="0.2" stroke="white" stroke-width="3.4" mask="url(#path-4-inside-1_1266_33990)"/>
<rect x="12.8618" y="12.8047" width="10.3244" height="9.61784" rx="0.845285" fill="white" fill-opacity="0.2"/>
<path d="M26.2534 31.2578H39.5868" stroke="white" stroke-width="1.71" stroke-linecap="round"/>
<path d="M26.2534 15.4082H39.5868" stroke="white" stroke-width="1.71" stroke-linecap="round"/>
<path d="M18.7471 13H14.3192C13.8498 13 13.4692 13.3806 13.4692 13.85V21.572C13.4692 22.0415 13.8498 22.422 14.3192 22.422H21.7285C22.1979 22.422 22.5785 22.0415 22.5785 21.572V18.3561" stroke="white" stroke-width="1.71" stroke-linecap="round"/>
<path d="M16.3232 17.1611L17.8089 18.6858L22.5785 13.7598" stroke="white" stroke-width="1.4" stroke-linecap="round"/>
</svg>
