<svg width="64" height="64" viewBox="0 0 64 64" fill="none" xmlns="http://www.w3.org/2000/svg">
<g filter="url(#filter0_d_6763_71076)">
<path d="M6.86126 17.0958C6.933 16.4252 7.76609 16.2608 8.14978 16.8155L14.5755 26.1046C16.3517 28.6722 20.2177 28.4426 21.6775 25.6827L31.1286 7.81324C31.2994 7.49027 31.6348 7.28821 32.0002 7.28821C32.3656 7.28821 32.701 7.49027 32.8719 7.81324L42.323 25.6827C43.7827 28.4426 47.6489 28.6722 49.4248 26.1045L55.8505 16.8155C56.2342 16.2608 57.0675 16.4252 57.139 17.0958C57.6127 21.5221 58.0127 26.0664 58.0127 30.6994C58.0127 35.3323 57.6127 39.8767 57.139 44.3029C56.4977 50.299 51.6752 55.1215 45.6819 55.7895C41.2306 56.2856 36.6601 56.7118 32.0002 56.7118C27.3403 56.7118 22.7698 56.2856 18.3184 55.7895C12.3253 55.1215 7.50276 50.299 6.86126 44.3029C6.38769 39.8767 5.98779 35.3323 5.98779 30.6994C5.98779 26.0664 6.38769 21.5221 6.86126 17.0958Z" fill="#D9D9D9"/>
<path d="M6.86126 17.0958C6.933 16.4252 7.76609 16.2608 8.14978 16.8155L14.5755 26.1046C16.3517 28.6722 20.2177 28.4426 21.6775 25.6827L31.1286 7.81324C31.2994 7.49027 31.6348 7.28821 32.0002 7.28821C32.3656 7.28821 32.701 7.49027 32.8719 7.81324L42.323 25.6827C43.7827 28.4426 47.6489 28.6722 49.4248 26.1045L55.8505 16.8155C56.2342 16.2608 57.0675 16.4252 57.139 17.0958C57.6127 21.5221 58.0127 26.0664 58.0127 30.6994C58.0127 35.3323 57.6127 39.8767 57.139 44.3029C56.4977 50.299 51.6752 55.1215 45.6819 55.7895C41.2306 56.2856 36.6601 56.7118 32.0002 56.7118C27.3403 56.7118 22.7698 56.2856 18.3184 55.7895C12.3253 55.1215 7.50276 50.299 6.86126 44.3029C6.38769 39.8767 5.98779 35.3323 5.98779 30.6994C5.98779 26.0664 6.38769 21.5221 6.86126 17.0958Z" stroke="black" stroke-width="3.69441" stroke-linejoin="round"/>
</g>
<defs>
<filter id="filter0_d_6763_71076" x="3.73476" y="5.44098" width="56.531" height="53.9298" filterUnits="userSpaceOnUse" color-interpolation-filters="sRGB">
<feFlood flood-opacity="0" result="BackgroundImageFix"/>
<feColorMatrix in="SourceAlpha" type="matrix" values="0 0 0 0 0 0 0 0 0 0 0 0 0 0 0 0 0 0 127 0" result="hardAlpha"/>
<feOffset dy="0.405868"/>
<feGaussianBlur stdDeviation="0.202934"/>
<feComposite in2="hardAlpha" operator="out"/>
<feColorMatrix type="matrix" values="0 0 0 0 0 0 0 0 0 0 0 0 0 0 0 0 0 0 0.25 0"/>
<feBlend mode="normal" in2="BackgroundImageFix" result="effect1_dropShadow_6763_71076"/>
<feBlend mode="normal" in="SourceGraphic" in2="effect1_dropShadow_6763_71076" result="shape"/>
</filter>
</defs>
</svg>
