<svg width="64" height="64" viewBox="0 0 64 64" fill="none" xmlns="http://www.w3.org/2000/svg">
<path d="M9.1834 44.3468C9.76564 49.7891 14.1427 54.1661 19.5821 54.7724C23.6224 55.2227 27.7707 55.6095 32.0001 55.6095C36.2295 55.6095 40.3779 55.2227 44.418 54.7724C49.8576 54.1661 54.2346 49.7891 54.8167 44.3468C55.2466 40.3295 55.6096 36.2049 55.6096 32C55.6096 27.795 55.2466 23.6705 54.8167 19.6531C54.2346 14.211 49.8576 9.83393 44.418 9.22764C40.3779 8.77729 36.2295 8.3905 32.0001 8.3905C27.7707 8.3905 23.6224 8.77729 19.5821 9.22764C14.1427 9.83393 9.76564 14.211 9.1834 19.6531C8.75358 23.6705 8.39062 27.795 8.39062 32C8.39062 36.2049 8.75358 40.3295 9.1834 44.3468Z" fill="white" stroke="black" stroke-width="3.69441" stroke-linecap="round" stroke-linejoin="round"/>
<path d="M54.8175 19.6531C54.8752 20.1954 54.4495 20.6674 53.904 20.6674H10.0971C9.55159 20.6674 9.12581 20.1955 9.18384 19.6531C9.76609 14.211 14.1431 9.83393 19.5825 9.22764C23.6228 8.77729 27.7711 8.3905 32.0006 8.3905C36.23 8.3905 40.3783 8.77729 44.4187 9.22764C49.858 9.83393 54.235 14.211 54.8175 19.6531Z" fill="#D9D9D9" stroke="black" stroke-width="3.69441" stroke-linecap="round" stroke-linejoin="round"/>
<path d="M21.6116 31.8103L20.3219 33.1C17.9048 35.5171 17.9048 39.4361 20.3219 41.8532L21.6116 43.1429" stroke="black" stroke-width="3.69441" stroke-linecap="round" stroke-linejoin="round"/>
<path d="M42.3877 31.8103L43.6773 33.1C46.0945 35.5171 46.0945 39.4361 43.6773 41.8532L42.3877 43.1429" stroke="black" stroke-width="3.69441" stroke-linecap="round" stroke-linejoin="round"/>
<path d="M29.167 45.0314L34.8333 28.0326" stroke="black" stroke-width="3.69441" stroke-linecap="round" stroke-linejoin="round"/>
</svg>
