<svg width="20" height="21" viewBox="0 0 20 21" fill="none" xmlns="http://www.w3.org/2000/svg">
<path d="M5.56935 9.19238C5.28191 8.89413 5.29068 8.41933 5.58893 8.1319C5.88717 7.84446 6.36197 7.85323 6.6494 8.15148L10.5331 12.1813C10.8206 12.4795 10.8118 12.9543 10.5135 13.2418C10.2153 13.5292 9.7405 13.5204 9.45306 13.2222L5.56935 9.19238Z" fill="white"/>
<path d="M9.46636 12.1812C9.17892 12.4795 9.18769 12.9543 9.48594 13.2417C9.78419 13.5291 10.259 13.5204 10.5464 13.2221L14.4301 9.19233C14.7176 8.89408 14.7088 8.41928 14.4106 8.13185C14.1123 7.84441 13.6375 7.85318 13.3501 8.15142L9.46636 12.1812Z" fill="white"/>
</svg>
