<svg width="55" height="48" viewBox="0 0 55 48" fill="none" xmlns="http://www.w3.org/2000/svg">
<path d="M24.555 32.9421C24.555 35.5353 23.508 37.8044 21.414 39.7493C19.3603 41.6942 16.9241 42.6667 14.1053 42.6667C9.67578 42.6667 6.27309 41.1877 3.89725 38.2298C1.52142 35.2719 0.333496 31.1795 0.333496 25.9525C0.333496 21.0902 2.36705 16.1874 6.43417 11.2441C10.5415 6.30073 15.4744 2.55271 21.2328 0L23.8905 4.31529C19.3402 6.54384 15.7764 9.13707 13.1993 12.095C10.6221 15.0529 9.13215 18.6388 8.72947 22.8528H12.112C14.6087 22.8528 16.6422 23.1364 18.2127 23.7037C19.7832 24.271 21.0516 25.0611 22.0181 26.0741C22.9442 27.0465 23.5885 28.1203 23.9509 29.2953C24.3536 30.4704 24.555 31.686 24.555 32.9421ZM54.3335 32.9421C54.3335 35.5353 53.2865 37.8044 51.1926 39.7493C49.1389 41.6942 46.7026 42.6667 43.8838 42.6667C39.4543 42.6667 36.0516 41.1877 33.6758 38.2298C31.2999 35.2719 30.112 31.1795 30.112 25.9525C30.112 21.0902 32.1456 16.1874 36.2127 11.2441C40.3201 6.30073 45.253 2.55271 51.0113 0L53.6691 4.31529C49.1187 6.54384 45.555 9.13707 42.9778 12.095C40.4006 15.0529 38.9107 18.6388 38.508 22.8528H41.8905C44.3872 22.8528 46.4207 23.1364 47.9912 23.7037C49.5617 24.271 50.8301 25.0611 51.7966 26.0741C52.7228 27.0465 53.3671 28.1203 53.7295 29.2953C54.1322 30.4704 54.3335 31.686 54.3335 32.9421Z" fill="#FF732E"/>
</svg>
