<svg width="34" height="34" viewBox="0 0 34 34" fill="none" xmlns="http://www.w3.org/2000/svg">
<path d="M17 31.7656C19.2896 31.7656 31.0768 24.1865 31.0768 13.931C31.0768 11.2659 30.8325 9.14842 30.5553 7.49923C30.3168 6.07809 28.744 5.35394 27.3254 5.60749C24.5366 6.10599 21.648 5.30268 18.6864 2.84098C17.7166 2.03478 16.2833 2.03478 15.3134 2.84098C12.3519 5.30268 9.46333 6.10599 6.67448 5.60749C5.25592 5.35394 3.68313 6.07809 3.4444 7.49923C3.16741 9.14842 2.92285 11.2659 2.92285 13.931C2.92285 24.1865 14.7102 31.7656 17 31.7656Z" fill="#D7E0FF" stroke="#494FC9" stroke-width="1.24"/>
<path d="M24.0733 12.4901C23.6981 11.894 22.868 11.7972 22.3657 12.2909L14.496 20.0266L11.3532 16.9163C10.8649 16.433 10.0454 16.5783 9.75294 17.1999C9.57352 17.5812 9.65378 18.0342 9.95328 18.3307L14.122 22.4572C14.2623 22.5957 14.4515 22.6733 14.6486 22.6733C14.8458 22.6733 15.035 22.5957 15.1753 22.4572L23.9131 13.8648C24.2829 13.5012 24.3495 12.929 24.0733 12.4901Z" fill="#494FC9"/>
</svg>
