<svg width="20" height="21" viewBox="0 0 20 21" fill="none" xmlns="http://www.w3.org/2000/svg">
<g clip-path="url(#clip0_1266_40040)">
<path d="M14.9999 12.1832C14.5075 12.1865 14.022 12.2987 13.5782 12.512C13.1344 12.7252 12.7434 13.0342 12.4332 13.4165L8.18321 11.4582C8.38304 10.8463 8.38304 10.1867 8.18321 9.57487L12.4332 7.61653C12.9346 8.22151 13.6335 8.62993 14.4067 8.76973C15.1798 8.90953 15.9776 8.77172 16.659 8.38062C17.3405 7.98952 17.8619 7.37027 18.1312 6.63215C18.4005 5.89404 18.4004 5.08452 18.131 4.34646C17.8615 3.60839 17.34 2.98924 16.6585 2.59826C15.977 2.20728 15.1792 2.06961 14.4061 2.20955C13.6329 2.3495 12.9341 2.75805 12.4328 3.36311C11.9316 3.96818 11.6602 4.73085 11.6665 5.51653C11.6691 5.71506 11.6886 5.91301 11.7249 6.1082L7.32488 8.1332C6.85578 7.67452 6.26175 7.36446 5.61722 7.24189C4.97269 7.11932 4.30631 7.18967 3.70159 7.44414C3.09687 7.69862 2.58068 8.12588 2.21771 8.67242C1.85475 9.21895 1.66113 9.86045 1.66113 10.5165C1.66113 11.1726 1.85475 11.8141 2.21771 12.3606C2.58068 12.9072 3.09687 13.3345 3.70159 13.5889C4.30631 13.8434 4.97269 13.9138 5.61722 13.7912C6.26175 13.6686 6.85578 13.3586 7.32488 12.8999L11.7249 14.9249C11.6886 15.1201 11.6691 15.318 11.6665 15.5165C11.6665 16.1758 11.862 16.8203 12.2283 17.3684C12.5946 17.9166 13.1152 18.3438 13.7243 18.5961C14.3334 18.8484 15.0036 18.9144 15.6502 18.7858C16.2968 18.6572 16.8907 18.3397 17.3569 17.8736C17.8231 17.4074 18.1405 16.8134 18.2692 16.1668C18.3978 15.5202 18.3318 14.85 18.0795 14.2409C17.8272 13.6318 17.3999 13.1112 16.8518 12.745C16.3036 12.3787 15.6592 12.1832 14.9999 12.1832ZM14.9999 3.84987C15.3295 3.84987 15.6518 3.94762 15.9258 4.13075C16.1999 4.31389 16.4135 4.57418 16.5397 4.87873C16.6658 5.18327 16.6988 5.51838 16.6345 5.84168C16.5702 6.16499 16.4115 6.46196 16.1784 6.69505C15.9453 6.92813 15.6483 7.08687 15.325 7.15118C15.0017 7.21549 14.6666 7.18248 14.3621 7.05633C14.0575 6.93019 13.7972 6.71657 13.6141 6.44248C13.431 6.1684 13.3332 5.84617 13.3332 5.51653C13.3332 5.07451 13.5088 4.65058 13.8214 4.33802C14.1339 4.02546 14.5579 3.84987 14.9999 3.84987ZM4.99988 12.1832C4.67025 12.1832 4.34801 12.0855 4.07393 11.9023C3.79985 11.7192 3.58623 11.4589 3.46008 11.1543C3.33394 10.8498 3.30093 10.5147 3.36524 10.1914C3.42955 9.86808 3.58828 9.57111 3.82137 9.33802C4.05446 9.10494 4.35143 8.9462 4.67473 8.88189C4.99803 8.81758 5.33314 8.85059 5.63769 8.97673C5.94223 9.10288 6.20253 9.3165 6.38566 9.59058C6.5688 9.86467 6.66655 10.1869 6.66655 10.5165C6.66655 10.9586 6.49095 11.3825 6.17839 11.695C5.86583 12.0076 5.44191 12.1832 4.99988 12.1832ZM14.9999 17.1832C14.6702 17.1832 14.348 17.0855 14.0739 16.9023C13.7998 16.7192 13.5862 16.4589 13.4601 16.1543C13.3339 15.8498 13.3009 15.5147 13.3652 15.1914C13.4295 14.8681 13.5883 14.5711 13.8214 14.338C14.0545 14.1049 14.3514 13.9462 14.6747 13.8819C14.998 13.8176 15.3331 13.8506 15.6377 13.9767C15.9422 14.1029 16.2025 14.3165 16.3857 14.5906C16.5688 14.8647 16.6665 15.1869 16.6665 15.5165C16.6665 15.9586 16.491 16.3825 16.1784 16.695C15.8658 17.0076 15.4419 17.1832 14.9999 17.1832Z" fill="black"/>
</g>
<defs>
<clipPath id="clip0_1266_40040">
<rect width="20" height="20" fill="white" transform="translate(0 0.515625)"/>
</clipPath>
</defs>
</svg>
