<svg width="36" height="37" viewBox="0 0 36 37" fill="none" xmlns="http://www.w3.org/2000/svg">
<path d="M19.1429 15.087C19.1429 13.9442 19.7143 13.9442 20.2858 13.9442H20.9715C21.086 13.9457 21.1996 13.9243 21.3057 13.8812C21.4118 13.8381 21.5081 13.7741 21.5891 13.6932C21.67 13.6122 21.734 13.5159 21.7771 13.4098C21.8202 13.3037 21.8416 13.1901 21.8401 13.0756V12.0013C21.8401 11.8863 21.8172 11.7724 21.7729 11.6662C21.7285 11.5601 21.6635 11.4638 21.5816 11.383C21.4998 11.3022 21.4027 11.2385 21.2959 11.1955C21.1892 11.1526 21.0751 11.1312 20.9601 11.1327L19.3372 11.1099C18.8647 11.0916 18.3938 11.1761 17.9571 11.3575C17.5203 11.5389 17.1282 11.8129 16.8077 12.1605C16.4871 12.5082 16.2459 12.9213 16.1005 13.3713C15.9552 13.8213 15.9092 14.2975 15.9658 14.767V16.4242H15.0629C14.8325 16.4242 14.6116 16.5157 14.4487 16.6785C14.2858 16.8414 14.1943 17.0624 14.1943 17.2927V18.367C14.1943 18.5974 14.2858 18.8183 14.4487 18.9812C14.6116 19.1441 14.8325 19.2356 15.0629 19.2356H15.9658V25.3727C15.9658 25.5243 16.026 25.6696 16.1331 25.7768C16.2403 25.8839 16.3856 25.9442 16.5372 25.9442H18.6058C18.7513 25.9354 18.888 25.8714 18.9878 25.7651C19.0877 25.6589 19.1432 25.5185 19.1429 25.3727V19.2356H20.1486C20.379 19.2356 20.5999 19.1441 20.7628 18.9812C20.9257 18.8183 21.0172 18.5974 21.0172 18.367V17.2927C21.0172 17.0624 20.9257 16.8414 20.7628 16.6785C20.5999 16.5157 20.379 16.4242 20.1486 16.4242H19.1429V15.087Z" stroke="white" stroke-width="1.14286" stroke-linecap="round" stroke-linejoin="round"/>
<rect x="0.5" y="1.01562" width="35" height="35" rx="17.5" stroke="#E5E5E5"/>
</svg>
