<svg width="36" height="37" viewBox="0 0 36 37" fill="none" xmlns="http://www.w3.org/2000/svg">
<path d="M14.5716 21.2591C13.7555 21.9001 12.8188 22.3703 11.8173 22.6419C11.707 22.682 11.6117 22.755 11.5443 22.8511C11.477 22.9472 11.4408 23.0617 11.4408 23.1791C11.4408 23.2964 11.477 23.4109 11.5443 23.507C11.6117 23.6031 11.707 23.6762 11.8173 23.7162C19.7259 26.9619 24.7544 21.9448 23.9887 16.3791L25.2687 13.7276H23.783C21.9316 11.4534 17.0173 11.5676 17.8287 16.4134C17.8287 16.4134 15.2002 16.8819 11.8402 13.5791C11.7624 13.5023 11.6643 13.4495 11.5575 13.4268C11.4507 13.4041 11.3396 13.4124 11.2374 13.4509C11.1351 13.4894 11.0461 13.5564 10.9808 13.6439C10.9154 13.7314 10.8766 13.8358 10.8687 13.9448C10.5135 15.4052 10.6912 16.9444 11.3701 18.2854C12.049 19.6263 13.1843 20.6809 14.5716 21.2591Z" stroke="white" stroke-width="1.14286" stroke-linecap="round" stroke-linejoin="round"/>
<rect x="0.5" y="1.01562" width="35" height="35" rx="17.5" stroke="#E5E5E5"/>
</svg>
