<svg width="52" height="52" viewBox="0 0 52 52" fill="none" xmlns="http://www.w3.org/2000/svg">
<rect width="52" height="52" rx="8" fill="#4CD3FF"/>
<path d="M26 39.8958C28.155 39.8958 39.2488 32.7625 39.2488 23.1103C39.2488 20.6019 39.0189 18.609 38.758 17.0568C38.5335 15.7193 37.0532 15.0377 35.7181 15.2764C33.0933 15.7455 30.3746 14.9895 27.5873 12.6726C26.6745 11.9138 25.3255 11.9138 24.4127 12.6726C21.6254 14.9895 18.9067 15.7455 16.2819 15.2764C14.9468 15.0377 13.4665 15.7193 13.2418 17.0568C12.9811 18.609 12.751 20.6019 12.751 23.1103C12.751 32.7625 23.845 39.8958 26 39.8958Z" stroke="white" stroke-width="2.03867"/>
<path d="M32.6571 21.7539C32.304 21.1929 31.5228 21.1017 31.05 21.5665L23.6432 28.8471L20.6853 25.9197C20.2258 25.4649 19.4545 25.6016 19.1792 26.1866C19.0103 26.5455 19.0859 26.9719 19.3677 27.2509L23.2912 31.1347C23.4233 31.265 23.6013 31.3381 23.7869 31.3381C23.9724 31.3381 24.1505 31.265 24.2826 31.1347L32.5064 23.0477C32.8544 22.7055 32.9172 22.167 32.6571 21.7539Z" fill="white"/>
</svg>
