<svg width="34" height="34" viewBox="0 0 34 34" fill="none" xmlns="http://www.w3.org/2000/svg">
<path d="M27.9922 8.58984H6.42835C4.44297 8.58984 2.8335 10.1993 2.8335 12.1847V24.7632C2.8335 26.7486 4.44297 28.358 6.42835 28.358H27.9922C29.9776 28.358 31.5871 26.7486 31.5871 24.7632V12.1847C31.5871 10.1993 29.9776 8.58984 27.9922 8.58984Z" fill="#D7E0FF" stroke="#494FC9" stroke-width="1.23783" stroke-linecap="round" stroke-linejoin="round"/>
<path d="M2.8335 15.7773H15.3173" stroke="#494FC9" stroke-width="1.23783" stroke-linecap="round" stroke-linejoin="round"/>
<path d="M19.103 15.7773H31.5868" stroke="#494FC9" stroke-width="1.23783" stroke-linecap="round" stroke-linejoin="round"/>
<path d="M22.6017 8.58924H11.8188L12.4677 5.46259C12.584 5.09099 12.8223 4.76953 13.1441 4.55025C13.4658 4.33097 13.8522 4.22672 14.2406 4.25437H20.18C20.5683 4.22672 20.9547 4.33097 21.2765 4.55025C21.5982 4.76953 21.8365 5.09099 21.9528 5.46259L22.6017 8.58924Z" stroke="#494FC9" stroke-width="1.23783" stroke-linecap="round" stroke-linejoin="round"/>
<path d="M18.2055 13.9805H16.2152C15.7194 13.9805 15.3174 14.3824 15.3174 14.8783V18.4732C15.3174 18.969 15.7194 19.371 16.2152 19.371H18.2055C18.7014 19.371 19.1034 18.969 19.1034 18.4732V14.8783C19.1034 14.3824 18.7014 13.9805 18.2055 13.9805Z" fill="#D7E0FF" stroke="#494FC9" stroke-width="1.23783" stroke-linecap="round" stroke-linejoin="round"/>
</svg>
