<svg width="16" height="16" viewBox="0 0 16 16" fill="none" xmlns="http://www.w3.org/2000/svg">
<path d="M13.1729 4.04297H3.02519C2.09089 4.04297 1.3335 4.80037 1.3335 5.73467V11.654C1.3335 12.5883 2.09089 13.3457 3.02519 13.3457H13.1729C14.1072 13.3457 14.8646 12.5883 14.8646 11.654V5.73467C14.8646 4.80037 14.1072 4.04297 13.1729 4.04297Z" fill="#E5E5E5" stroke="#616161" stroke-width="1.7" stroke-linecap="round" stroke-linejoin="round"/>
<path d="M1.3335 7.42383H7.20822" stroke="#616161" stroke-width="1.7" stroke-linecap="round" stroke-linejoin="round"/>
<path d="M8.98975 7.42383H14.8645" stroke="#616161" stroke-width="1.7" stroke-linecap="round" stroke-linejoin="round"/>
<path d="M10.6363 4.04199H5.56201L5.86734 2.57063C5.92207 2.39576 6.03423 2.24448 6.18564 2.1413C6.33705 2.03811 6.51887 1.98904 6.70164 2.00205H9.49665C9.67942 1.98904 9.86123 2.03811 10.0126 2.1413C10.1641 2.24448 10.2762 2.39576 10.3309 2.57063L10.6363 4.04199Z" stroke="#616161" stroke-width="1.7" stroke-linecap="round" stroke-linejoin="round"/>
<path d="M8.56714 6.57812H7.63052C7.39717 6.57812 7.20801 6.76729 7.20801 7.00064V8.69233C7.20801 8.92568 7.39717 9.11485 7.63052 9.11485H8.56714C8.80049 9.11485 8.98965 8.92568 8.98965 8.69233V7.00064C8.98965 6.76729 8.80049 6.57812 8.56714 6.57812Z" fill="#E5E5E5" stroke="#616161" stroke-width="1.7" stroke-linecap="round" stroke-linejoin="round"/>
</svg>
